{
.appVersion = "3342";
.formatVersion = 3;
date = "2025-02-16 11:19:15 +0000";
familyName = OHamburgC;
featurePrefixes = (
{
automatic = 1;
code = "languagesystem DFLT dflt;
";
name = Languagesystems;
}
);
fontMaster = (
{
customParameters = (
{
name = unitizerUnit;
value = 6.38055;
}
);
iconName = SemiLight_SemiCondensed;
id = m003;
metricValues = (
{
over = 11;
pos = 637;
},
{
over = 11;
pos = 616;
},
{
over = 11;
pos = 402;
},
{
over = -8;
},
{
over = -8;
pos = -230;
},
{
pos = 17;
},
{
}
);
name = Italic;
stemValues = (
28,
81
);
userData = {
GSCornerRadius = 25;
GSOffsetHorizontal = 2;
GSOffsetVertical = 2;
};
}
);
glyphs = (
{
glyphname = A;
lastChange = "2025-02-17 20:21:53 +0000";
layers = (
{
anchors = (
{
name = bottom;
pos = (283,0);
},
{
name = ogonek;
pos = (560,10);
},
{
name = top;
pos = (471,616);
}
);
color = 4;
layerId = m003;
shapes = (
{
closed = 1;
nodes = (
(611,0,l),
(617,25,l),
(550,39,o),
(535,64,o),
(521,135,cs),
(493,306,o),
(465,477,o),
(437,648,c),
(380,576,l),
(367,550,l),
(429,139,ls),
(444,42,o),
(433,43,o),
(347,25,c),
(341,0,l)
);
},
{
closed = 1;
nodes = (
(197,0,l),
(203,25,l),
(129,31,o),
(107,57,o),
(151,130,cs),
(410,564,l),
(380,576,l),
(275,404,o),
(160,198,o),
(71,83,cs),
(44,49,o),
(-5,25,o),
(-49,25,c),
(-55,0,l)
);
},
{
closed = 1;
nodes = (
(455,258,l),
(450,298,l),
(227,298,l),
(201,258,l)
);
}
);
width = 687;
}
);
unicode = 65;
},
{
glyphname = B;
lastChange = "2025-02-17 20:21:53 +0000";
layers = (
{
anchors = (
{
name = bottom;
pos = (241,0);
},
{
name = center;
pos = (137,154);
},
{
name = top;
pos = (429,616);
}
);
color = 2;
guides = (
{
angle = 270;
pos = (-14,13);
}
);
layerId = m003;
shapes = (
{
closed = 1;
nodes = (
(-14,0,l),
(277,0,l),
(286,40,l),
(241,40,o),
(199,34,o),
(184,50,cs),
(176,58,o),
(170,73,o),
(174,91,cs),
(224,307,o),
(240,377,o),
(286,574,c),
(303,576,o),
(367,576,o),
(390,576,c),
(399,616,l),
(128,616,l),
(122,591,l),
(157,586,o),
(180,582,o),
(192,572,cs),
(200,565,o),
(202,552,o),
(196,525,cs),
(155,341,o),
(135,253,o),
(149,312,cs),
(163,373,o),
(141,282,o),
(96,91,cs),
(90,65,o),
(81,51,o),
(70,43,cs),
(51,29,o),
(25,31,o),
(-8,25,c)
);
},
{
closed = 1;
nodes = (
(218,318,o),
(230,318,o),
(258,318,cs),
(420,318,o),
(537,378,o),
(561,481,cs),
(579,560,o),
(512,616,o),
(399,616,c),
(390,576,l),
(451,576,o),
(483,529,o),
(468,462,cs),
(450,387,o),
(372,348,o),
(258,348,cs),
(198,348,l),
(192,318,l)
);
},
{
closed = 1;
nodes = (
(402,0,o),
(508,79,o),
(534,191,cs),
(555,280,o),
(482,333,o),
(362,338,cs),
(180,346,l),
(172,314,l),
(194,314,o),
(206,314,o),
(243,314,cs),
(378,314,o),
(460,263,o),
(438,171,cs),
(421,94,o),
(356,40,o),
(286,40,c),
(277,0,l)
);
}
);
width = 604;
}
);
metricLeft = H;
unicode = 66;
},
{
glyphname = C;
lastChange = "2025-02-17 20:21:53 +0000";
layers = (
{
anchors = (
{
name = bottom;
pos = (280,0);
},
{
name = top;
pos = (468,616);
}
);
background = {
shapes = (
{
closed = 1;
nodes = (
(338,588,l),
(434,588,o),
(504,528,o),
(509,444,c),
(540,444,l),
(542,495,o),
(549,558,o),
(556,595,c),
(506,614,o),
(412,627,o),
(330,627,c)
);
}
);
};
backgroundImage = {
imagePath = "../../Desktop/Bildschirmfoto 2024-12-24 um 08.52.09.png";
pos = (634,-952);
scale = (-1.4,1.4);
};
color = 4;
layerId = m003;
shapes = (
{
closed = 1;
nodes = (
(406,-11,o),
(504,9,o),
(567,38,c),
(600,106,o),
(632,174,o),
(642,201,c),
(606,200,l),
(560,102,o),
(438,33,o),
(340,33,cs),
(186,33,o),
(115,158,o),
(156,335,cs),
(190,482,o),
(333,588,o),
(482,588,cs),
(580,588,o),
(637,528,o),
(622,444,c),
(653,444,l),
(665,489,o),
(686,551,o),
(703,595,c),
(658,614,o),
(565,627,o),
(479,627,cs),
(272,627,o),
(99,496,o),
(56,312,cs),
(12,123,o),
(124,-11,o),
(331,-11,cs)
);
}
);
width = 681;
},
{
anchors = (
{
name = bottom;
pos = (408,0);
},
{
name = top;
pos = (407,616);
}
);
associatedMasterId = m003;
background = {
shapes = (
{
closed = 1;
nodes = (
(418,588,l),
(514,588,o),
(584,528,o),
(589,444,c),
(620,444,l),
(622,495,o),
(629,558,o),
(636,595,c),
(586,614,o),
(492,627,o),
(410,627,c)
);
}
);
};
backgroundImage = {
imagePath = "../../Desktop/Bildschirmfoto 2024-12-24 um 08.52.09.png";
pos = (714,-952);
scale = (-1.4,1.4);
};
color = 4;
layerId = "A8205263-60D0-4B63-B521-8F6B441CF343";
name = "11. Jan. 25, 13:19";
shapes = (
{
closed = 1;
nodes = (
(479,-11,o),
(572,9,o),
(628,38,c),
(646,106,o),
(662,174,o),
(666,201,c),
(630,200,l),
(606,102,o),
(520,33,o),
(422,33,cs),
(268,33,o),
(156,158,o),
(156,335,cs),
(156,482,o),
(265,586,o),
(414,586,cs),
(506,586,o),
(582,522,o),
(597,432,c),
(637,432,l),
(634,599,l),
(584,573,l),
(551,605,o),
(477,627,o),
(404,627,cs),
(197,627,o),
(54,496,o),
(54,312,cs),
(54,123,o),
(197,-11,o),
(404,-11,cs)
);
}
);
width = 720;
}
);
metricLeft = O;
metricRight = H;
unicode = 67;
},
{
glyphname = D;
lastChange = "2025-02-17 20:21:53 +0000";
layers = (
{
anchors = (
{
name = bottom;
pos = (302,0);
},
{
name = center;
pos = (214,308);
},
{
name = top;
pos = (490,616);
}
);
background = {
shapes = (
{
closed = 1;
nodes = (
(-22,0,l),
(261,0,l),
(261,40,l),
(216,40,o),
(181,38,o),
(162,54,cs),
(153,62,o),
(148,73,o),
(148,91,cs),
(146,307,o),
(145,377,o),
(149,574,c),
(166,576,o),
(218,576,o),
(241,576,c),
(241,616,l),
(-22,616,l),
(-22,591,l),
(12,581,o),
(36,582,o),
(50,572,cs),
(60,565,o),
(65,552,o),
(65,525,cs),
(66,341,o),
(67,253,o),
(67,312,cs),
(67,373,o),
(66,282,o),
(65,91,cs),
(65,65,o),
(59,51,o),
(50,43,cs),
(34,29,o),
(8,31,o),
(-22,25,c)
);
}
);
};
backgroundImage = {
imagePath = "../../Desktop/Bildschirmfoto 2024-12-24 um 13.06.05.png";
pos = (717,-1011);
scale = (-1.4,1.4);
};
color = 2;
layerId = m003;
shapes = (
{
closed = 1;
nodes = (
(-14,0,l),
(9,0,o),
(71,0,o),
(113,0,cs),
(113,0,o),
(154,1,o),
(271,-3,c),
(275,38,l),
(223,38,o),
(203,33,o),
(185,55,cs),
(178,63,o),
(175,74,o),
(179,91,cs),
(202,189,o),
(268,476,o),
(292,574,c),
(338,577,o),
(390,578,o),
(436,578,c),
(442,619,l),
(361,618,o),
(298,616,o),
(258,616,c),
(212,616,o),
(159,616,o),
(128,616,c),
(122,590,l),
(159,583,o),
(181,582,o),
(192,572,cs),
(201,565,o),
(202,552,o),
(196,525,cs),
(171,411,o),
(152,323,o),
(149,312,cs),
(147,302,o),
(124,210,o),
(96,91,cs),
(90,66,o),
(82,52,o),
(70,43,cs),
(53,31,o),
(28,30,o),
(-8,25,c)
);
},
{
closed = 1;
nodes = (
(271,-3,l),
(473,-2,o),
(647,135,o),
(691,327,cs),
(731,498,o),
(628,619,o),
(442,619,c),
(436,578,l),
(577,578,o),
(630,462,o),
(592,298,cs),
(557,146,o),
(414,38,o),
(275,38,c)
);
}
);
width = 725;
}
);
metricLeft = H;
metricRight = O;
unicode = 68;
},
{
glyphname = E;
lastChange = "2025-02-17 20:21:53 +0000";
layers = (
{
anchors = (
{
name = bottom;
pos = (227,0);
},
{
name = ogonek;
pos = (460,10);
},
{
name = top;
pos = (415,616);
},
{
name = topleft;
pos = (147,616);
}
);
color = 2;
guides = (
{
angle = 77.035;
lockAngle = 1;
pos = (60,-67);
}
);
layerId = m003;
shapes = (
{
closed = 1;
nodes = (
(12,-1,o),
(60,0,o),
(105,0,c),
(248,0,o),
(406,-1,o),
(482,-3,c),
(505,44,o),
(530,110,o),
(543,157,c),
(514,157,l),
(487,90,o),
(437,43,o),
(393,40,cs),
(361,38,o),
(297,37,o),
(240,37,cs),
(206,37,o),
(191,42,o),
(182,52,cs),
(174,62,o),
(175,76,o),
(179,96,cs),
(218,265,o),
(252,416,o),
(291,576,c),
(328,578,o),
(357,578,o),
(379,578,cs),
(407,578,o),
(442,578,o),
(474,576,cs),
(499,574,o),
(515,544,o),
(512,499,c),
(546,499,l),
(556,536,o),
(572,586,o),
(587,619,c),
(521,617,o),
(378,616,o),
(257,616,c),
(208,616,o),
(156,617,o),
(128,618,c),
(121,589,l),
(155,584,o),
(178,581,o),
(190,567,cs),
(197,558,o),
(200,544,o),
(194,521,c),
(95,91,l),
(89,67,o),
(81,52,o),
(69,42,cs),
(52,29,o),
(28,26,o),
(-10,23,c),
(-15,-2,l)
);
},
{
closed = 1;
nodes = (
(413,206,l),
(423,272,o),
(444,364,o),
(464,430,c),
(438,430,l),
(436,424,o),
(428,410,o),
(419,396,c),
(394,360,o),
(366,336,o),
(306,336,cs),
(176,336,l),
(166,296,l),
(296,296,ls),
(363,296,o),
(380,274,o),
(385,242,cs),
(388,206,l)
);
}
);
width = 576;
}
);
metricLeft = H;
metricRight = H;
unicode = 69;
},
{
glyphname = F;
lastChange = "2025-02-17 20:21:53 +0000";
layers = (
{
anchors = (
{
name = bottom;
pos = (199,0);
},
{
name = top;
pos = (387,616);
}
);
background = {
shapes = (
{
closed = 1;
nodes = (
(-24,0,l),
(259,0,l),
(259,40,l),
(214,40,o),
(179,38,o),
(160,54,cs),
(151,62,o),
(146,73,o),
(146,91,cs),
(144,307,o),
(143,377,o),
(147,574,c),
(164,576,o),
(216,576,o),
(239,576,c),
(239,616,l),
(-24,616,l),
(-24,591,l),
(10,581,o),
(34,582,o),
(48,572,cs),
(58,565,o),
(63,552,o),
(63,525,cs),
(64,341,o),
(65,253,o),
(65,312,cs),
(65,373,o),
(64,282,o),
(63,91,cs),
(63,65,o),
(57,51,o),
(48,43,cs),
(32,29,o),
(6,31,o),
(-24,25,c)
);
}
);
};
color = 2;
layerId = m003;
shapes = (
{
closed = 1;
nodes = (
(11,0,o),
(217,0,o),
(272,0,c),
(279,29,l),
(228,35,o),
(195,35,o),
(181,54,cs),
(175,64,o),
(173,79,o),
(179,103,cs),
(213,260,o),
(251,421,o),
(290,578,c),
(312,579,o),
(361,580,o),
(383,580,cs),
(411,580,o),
(433,580,o),
(464,578,cs),
(489,576,o),
(504,544,o),
(501,499,c),
(533,499,l),
(544,536,o),
(562,586,o),
(577,619,c),
(511,617,o),
(376,616,o),
(256,616,c),
(207,616,o),
(156,617,o),
(128,618,c),
(122,592,l),
(155,586,o),
(178,584,o),
(190,572,cs),
(197,563,o),
(200,550,o),
(194,525,cs),
(163,380,o),
(129,236,o),
(94,91,cs),
(88,67,o),
(81,53,o),
(70,44,cs),
(54,30,o),
(30,27,o),
(-11,23,c),
(-16,-1,l)
);
},
{
closed = 1;
nodes = (
(407,206,l),
(416,272,o),
(437,364,o),
(458,430,c),
(433,430,l),
(431,424,o),
(423,410,o),
(414,396,c),
(389,360,o),
(361,336,o),
(319,336,cs),
(185,336,l),
(175,296,l),
(309,296,ls),
(358,296,o),
(375,274,o),
(380,242,cs),
(383,206,l)
);
}
);
width = 520;
}
);
metricLeft = H;
metricRight = O;
unicode = 70;
},
{
glyphname = G;
lastChange = "2025-02-17 20:21:53 +0000";
layers = (
{
anchors = (
{
name = bottom;
pos = (293,0);
},
{
name = top;
pos = (481,616);
}
);
backgroundImage = {
imagePath = "../../Desktop/Bildschirmfoto 2024-12-23 um 19.38.00.png";
pos = (635,-876);
scale = (-1.37,1.3692);
};
color = 3;
layerId = m003;
shapes = (
{
closed = 1;
nodes = (
(415,-11,o),
(522,11,o),
(584,43,c),
(583,56,l),
(565,57,o),
(557,67,o),
(560,79,c),
(588,200,l),
(594,225,o),
(612,247,o),
(636,252,c),
(674,258,l),
(680,287,l),
(428,287,l),
(420,253,l),
(471,244,o),
(511,225,o),
(502,188,c),
(477,76,l),
(472,55,o),
(412,33,o),
(367,33,cs),
(185,33,o),
(112,141,o),
(156,333,cs),
(190,482,o),
(329,588,o),
(484,588,cs),
(580,588,o),
(636,528,o),
(622,444,c),
(653,444,l),
(666,495,o),
(688,558,o),
(703,595,c),
(658,614,o),
(567,627,o),
(485,627,cs),
(280,627,o),
(98,495,o),
(55,308,cs),
(12,121,o),
(130,-11,o),
(331,-11,cs)
);
}
);
width = 708;
}
);
metricLeft = O;
metricRight = O;
unicode = 71;
},
{
glyphname = H;
lastChange = "2025-02-17 20:21:53 +0000";
layers = (
{
anchors = (
{
name = bottom;
pos = (332,0);
},
{
name = center;
pos = (473,462);
},
{
name = top;
pos = (520,616);
},
{
name = topleft;
pos = (147,616);
}
);
background = {
shapes = (
{
closed = 1;
nodes = (
(138,609,l,{
"Letterink-NibData" = {
AngleInDegrees = "0";
};
}),
(134,616,l,{
"Letterink-NibData" = {
AngleInDegrees = "360";
};
}),
(65,576,l),
(65,7,l,{
"Letterink-NibData" = {
AngleInDegrees = "360";
};
}),
(69,0,l,{
"Letterink-NibData" = {
AngleInDegrees = "360";
};
}),
(138,40,l),
(138,304,l),
(552,304,l),
(552,7,l,{
"Letterink-NibData" = {
AngleInDegrees = "360";
};
}),
(556,0,l,{
"Letterink-NibData" = {
AngleInDegrees = "360";
};
}),
(626,40,l),
(626,609,l,{
"Letterink-NibData" = {
AngleInDegrees = "0";
};
}),
(622,616,l,{
"Letterink-NibData" = {
AngleInDegrees = "359.99999";
};
}),
(552,576,l),
(552,351,l),
(138,351,l)
);
},
{
closed = 0;
nodes = (
(210,616,l),
(210,591,l),
(182,583,o),
(164,576,o),
(153,564,cs),
(144,553,o),
(140,538,o),
(140,512,cs)
);
}
);
};
color = 1;
layerId = m003;
shapes = (
{
closed = 1;
nodes = (
(76,2,o),
(166,2,o),
(256,0,c),
(262,25,l),
(233,33,o),
(191,39,o),
(183,51,cs),
(175,61,o),
(174,77,o),
(180,104,cs),
(196,178,o),
(213,252,o),
(229,326,cs),
(243,388,o),
(259,450,o),
(274,512,cs),
(280,539,o),
(290,556,o),
(301,565,cs),
(315,577,o),
(360,583,o),
(392,591,c),
(398,616,l),
(308,614,o),
(218,614,o),
(128,616,c),
(122,591,l),
(143,583,o),
(184,576,o),
(192,564,cs),
(199,553,o),
(199,538,o),
(193,512,cs),
(180,450,o),
(167,389,o),
(152,327,cs),
(135,253,o),
(117,178,o),
(99,104,cs),
(93,78,o),
(86,63,o),
(74,52,cs),
(60,40,o),
(16,33,o),
(-8,25,c),
(-14,0,l)
);
},
{
closed = 1;
nodes = (
(526,2,o),
(616,2,o),
(706,0,c),
(712,25,l),
(693,33,o),
(652,39,o),
(644,51,cs),
(636,61,o),
(635,77,o),
(641,104,cs),
(657,179,o),
(675,255,o),
(691,330,cs),
(704,391,o),
(720,451,o),
(735,512,cs),
(741,539,o),
(749,554,o),
(762,565,cs),
(776,577,o),
(820,583,o),
(842,591,c),
(848,616,l),
(758,614,o),
(668,614,o),
(578,616,c),
(572,591,l),
(603,583,o),
(645,576,o),
(653,564,cs),
(660,553,o),
(660,538,o),
(654,512,cs),
(641,451,o),
(628,390,o),
(614,329,cs),
(597,254,o),
(578,179,o),
(560,104,cs),
(554,78,o),
(547,63,o),
(535,52,cs),
(521,40,o),
(476,33,o),
(442,25,c),
(436,0,l)
);
},
{
closed = 1;
nodes = (
(639,304,l),
(650,349,l),
(203,349,l),
(192,304,l)
);
}
);
width = 786;
}
);
note = H;
unicode = 72;
},
{
glyphname = I;
lastChange = "2025-02-17 20:21:53 +0000";
layers = (
{
anchors = (
{
name = bottom;
pos = (98,0);
},
{
name = ogonek;
pos = (228,10);
},
{
name = top;
pos = (286,616);
},
{
name = topleft;
pos = (147,616);
}
);
color = 1;
layerId = m003;
shapes = (
{
closed = 1;
nodes = (
(-14,0,l),
(238,0,l),
(244,25,l),
(206,31,o),
(183,32,o),
(173,41,cs),
(164,49,o),
(164,63,o),
(170,91,c),
(270,525,l),
(277,555,o),
(290,570,o),
(306,577,cs),
(325,586,o),
(349,586,o),
(374,591,c),
(380,616,l),
(128,616,l),
(123,593,l),
(159,587,o),
(182,586,o),
(193,575,cs),
(201,566,o),
(202,552,o),
(196,525,c),
(96,91,l),
(89,62,o),
(82,47,o),
(70,39,cs),
(52,27,o),
(28,30,o),
(-8,25,c)
);
}
);
width = 318;
}
);
metricLeft = H;
metricRight = H;
note = I;
unicode = 73;
},
{
glyphname = J;
lastChange = "2025-02-17 20:21:53 +0000";
layers = (
{
anchors = (
{
name = bottom;
pos = (83,0);
},
{
name = top;
pos = (271,616);
}
);
color = 1;
layerId = m003;
shapes = (
{
closed = 1;
nodes = (
(-52,-232,o),
(13,-190,o),
(37,-164,cs),
(100,-96,o),
(162,29,o),
(187,148,cs),
(230,341,o),
(228,332,o),
(274,525,cs),
(281,555,o),
(289,569,o),
(304,577,cs),
(320,584,o),
(343,585,o),
(378,591,c),
(384,616,l),
(132,616,l),
(126,591,l),
(161,587,o),
(184,586,o),
(197,574,cs),
(205,565,o),
(207,551,o),
(201,525,cs),
(99,81,ls),
(88,33,o),
(59,-90,o),
(17,-138,cs),
(7,-150,o),
(-4,-157,o),
(-16,-157,cs),
(-35,-158,o),
(-32,-135,o),
(-51,-134,cs),
(-84,-134,o),
(-114,-163,o),
(-123,-205,cs),
(-127,-220,o),
(-112,-232,o),
(-86,-232,cs)
);
}
);
width = 288;
}
);
metricLeft = H;
metricRight = H;
unicode = 74;
},
{
glyphname = K;
lastChange = "2025-02-17 20:21:53 +0000";
layers = (
{
anchors = (
{
name = bottom;
pos = (258,0);
},
{
name = top;
pos = (446,616);
}
);
background = {
shapes = (
{
closed = 0;
nodes = (
(429,91,l),
(429,55,o),
(423,41,o),
(402,31,cs),
(391,26,o),
(373,25,o),
(346,18,c),
(346,0,l),
(591,0,l),
(591,18,l),
(545,31,o),
(522,33,o),
(513,51,cs),
(509,60,o),
(507,73,o),
(507,91,c)
);
},
{
closed = 0;
nodes = (
(451,525,l),
(451,561,o),
(457,575,o),
(478,585,cs),
(489,590,o),
(507,591,o),
(534,598,c),
(534,616,l),
(289,616,l),
(289,598,l),
(335,585,o),
(358,583,o),
(367,565,cs),
(371,556,o),
(373,543,o),
(373,525,cs)
);
}
);
};
color = 2;
layerId = m003;
shapes = (
{
closed = 1;
nodes = (
(-14,0,l),
(238,0,l),
(242,18,l),
(209,27,o),
(190,29,o),
(180,36,cs),
(170,44,o),
(165,58,o),
(173,91,cs),
(187,156,o),
(250,424,o),
(274,525,cs),
(281,556,o),
(291,572,o),
(306,581,cs),
(321,590,o),
(343,594,o),
(376,598,c),
(380,616,l),
(128,616,l),
(123,592,l),
(172,585,o),
(195,583,o),
(199,565,cs),
(201,556,o),
(200,543,o),
(196,525,cs),
(165,382,o),
(131,234,o),
(96,91,cs),
(90,66,o),
(82,52,o),
(70,44,cs),
(54,33,o),
(30,33,o),
(-8,25,c)
);
},
{
closed = 1;
nodes = (
(501,503,l),
(546,540,o),
(599,574,o),
(629,586,cs),
(645,592,o),
(676,597,o),
(682,598,c),
(686,616,l),
(452,616,l),
(448,598,l),
(471,593,o),
(492,580,o),
(487,557,cs),
(483,543,o),
(470,526,o),
(448,505,c),
(168,267,l),
(184,240,l)
);
},
{
closed = 1;
nodes = (
(602,18,l),
(543,34,o),
(515,48,o),
(477,99,c),
(303,362,l),
(230,301,l),
(283,217,o),
(378,72,o),
(399,40,cs),
(421,8,o),
(444,-4,o),
(487,-3,cs),
(598,0,l)
);
}
);
width = 638;
}
);
metricLeft = H;
unicode = 75;
},
{
glyphname = L;
lastChange = "2025-02-17 20:21:53 +0000";
layers = (
{
anchors = (
{
name = bottom;
pos = (244,0);
},
{
name = center;
pos = (338,308);
},
{
name = top;
pos = (432,616);
},
{
name = topright;
pos = (716,616);
}
);
color = 2;
layerId = m003;
shapes = (
{
closed = 1;
nodes = (
(-17,-3,l),
(74,-1,o),
(154,0,o),
(234,0,c),
(243,41,l),
(182,43,o),
(165,43,o),
(179,105,cs),
(207,234,o),
(225,318,o),
(274,517,cs),
(283,553,o),
(288,567,o),
(311,577,cs),
(323,582,o),
(342,585,o),
(372,588,c),
(378,616,l),
(128,616,l),
(123,592,l),
(157,587,o),
(179,585,o),
(190,576,cs),
(199,568,o),
(200,554,o),
(194,525,cs),
(164,382,o),
(129,234,o),
(93,91,cs),
(86,63,o),
(79,49,o),
(67,40,cs),
(52,30,o),
(30,29,o),
(-11,23,c)
);
},
{
closed = 1;
nodes = (
(296,2,o),
(407,1,o),
(475,-3,c),
(536,102,o),
(583,177,o),
(583,177,c),
(559,189,l),
(497,98,o),
(405,47,o),
(332,45,c),
(288,44,o),
(264,41,o),
(243,41,c),
(234,0,l)
);
}
);
width = 609;
}
);
metricLeft = H;
metricRight = H;
unicode = 76;
},
{
glyphname = M;
lastChange = "2025-02-17 20:21:53 +0000";
layers = (
{
anchors = (
{
name = bottom;
pos = (377,0);
},
{
name = top;
pos = (565,616);
}
);
backgroundImage = {
imagePath = "../../Desktop/Bildschirmfoto 2024-12-24 um 15.40.08.png";
pos = (787,-1015);
scale = (-1.3983,1.4017);
};
color = 1;
layerId = m003;
shapes = (
{
closed = 1;
nodes = (
(787,586,l),
(764,616,l),
(394,107,l),
(414,117,l),
(305,616,l),
(128,616,l),
(122,591,l),
(170,587,ls),
(198,584,o),
(223,565,o),
(229,540,cs),
(351,-16,l)
);
},
{
closed = 1;
nodes = (
(202,0,l),
(208,25,l),
(174,33,o),
(127,40,o),
(119,52,cs),
(113,63,o),
(111,79,o),
(118,105,cs),
(244,561,l),
(210,591,l),
(78,105,ls),
(71,78,o),
(62,60,o),
(51,51,cs),
(37,39,o),
(-1,33,o),
(-26,25,c),
(-32,0,l)
);
},
{
closed = 1;
nodes = (
(796,0,l),
(802,25,l),
(764,33,o),
(741,41,o),
(734,51,cs),
(723,65,o),
(728,82,o),
(733,104,cs),
(757,216,o),
(798,401,o),
(827,529,cs),
(831,544,o),
(837,556,o),
(849,566,cs),
(863,578,o),
(883,586,o),
(914,591,c),
(920,616,l),
(764,616,l),
(653,104,ls),
(647,80,o),
(644,63,o),
(628,50,cs),
(608,34,o),
(569,27,o),
(550,25,c),
(544,0,l)
);
}
);
width = 876;
}
);
metricLeft = H;
metricRight = H;
unicode = 77;
},
{
glyphname = N;
lastChange = "2025-02-17 20:21:53 +0000";
layers = (
{
anchors = (
{
name = bottom;
pos = (312,0);
},
{
name = top;
pos = (500,616);
}
);
color = 1;
layerId = m003;
shapes = (
{
closed = 1;
nodes = (
(613,-11,l),
(652,157,o),
(718,443,o),
(734,512,c),
(694,512,l),
(598,97,l),
(620,106,l),
(259,616,l),
(128,616,l),
(122,591,l),
(145,587,o),
(164,579,o),
(175,566,cs),
(190,548,o),
(216,514,o),
(216,514,c),
(587,-11,l)
);
},
{
closed = 1;
nodes = (
(220,0,l),
(226,25,l),
(190,28,o),
(151,35,o),
(141,52,cs),
(132,68,o),
(134,78,o),
(140,104,c),
(100,104,l),
(94,77,o),
(90,65,o),
(73,51,cs),
(52,34,o),
(15,33,o),
(-8,25,c),
(-14,0,l)
);
},
{
closed = 1;
nodes = (
(140,104,l),
(246,561,l),
(212,591,l),
(100,104,l)
);
},
{
closed = 1;
nodes = (
(734,512,l),
(741,542,o),
(750,558,o),
(764,567,cs),
(778,577,o),
(799,581,o),
(824,588,c),
(830,616,l),
(614,616,l),
(608,591,l),
(653,584,o),
(679,582,o),
(691,568,cs),
(700,557,o),
(701,541,o),
(694,512,c)
);
}
);
width = 745;
}
);
metricLeft = H;
metricRight = H;
unicode = 78;
},
{
glyphname = O;
lastChange = "2025-02-17 20:21:53 +0000";
layers = (
{
anchors = (
{
name = bottom;
pos = (310,0);
},
{
name = center;
pos = (404,308);
},
{
name = ogonek;
pos = (610,10);
},
{
name = top;
pos = (498,616);
},
{
name = topleft;
pos = (147,616);
},
{
name = topright;
pos = (849,616);
}
);
background = {
shapes = (
{
closed = 1;
nodes = (
(566,111,o),
(621,209,o),
(624,323,c,{
"Letterink-NibData" = {
AngleInDegrees = "359.99999";
};
}),
(621,395,o),
(610,434,o),
(580,483,cs,{
"Letterink-NibData" = {
AngleInDegrees = "0";
};
}),
(519,582,o),
(433,633,o),
(329,633,cs),
(280,633,o),
(232,621,o),
(191,597,cs,{
"Letterink-NibData" = {
AngleInDegrees = "359.99999";
};
}),
(121,557,ls,{
"Letterink-NibData" = {
AngleInDegrees = "359.99999";
};
}),
(95,542,o),
(43,495,o),
(26,471,cs,{
"Letterink-NibData" = {
AngleInDegrees = "360";
};
}),
(-14,415,o),
(-32,359,o),
(-32,290,cs),
(-32,121,o),
(103,-21,o),
(263,-21,cs),
(312,-21,o),
(364,-7,o),
(408,19,cs,{
"Letterink-NibData" = {
AngleInDegrees = "360";
};
}),
(477,59,ls,{
"Letterink-NibData" = {
AngleInDegrees = "0";
};
})
);
},
{
closed = 1;
nodes = (
(402,32,o),
(370,26,o),
(329,26,cs),
(255,26,o),
(172,61,o),
(127,111,cs,{
"Letterink-NibData" = {
AngleInDegrees = "360";
};
}),
(115,123,o),
(102,141,o),
(82,168,c,{
"Letterink-NibData" = {
AngleInDegrees = "359.99999";
};
}),
(51,236,o),
(41,271,o),
(41,323,cs),
(41,425,o),
(79,501,o),
(163,566,c,{
"Letterink-NibData" = {
AngleInDegrees = "0";
};
}),
(205,583,o),
(221,586,o),
(263,586,cs),
(368,586,o),
(449,538,o),
(513,438,c,{
"Letterink-NibData" = {
AngleInDegrees = "359.99999";
};
}),
(540,389,o),
(551,347,o),
(551,289,cs,{
"Letterink-NibData" = {
AngleInDegrees = "359.99999";
};
}),
(549,192,o),
(506,102,o),
(435,47,c,{
"Letterink-NibData" = {
AngleInDegrees = "0";
};
})
);
}
);
};
color = 4;
layerId = m003;
shapes = (
{
closed = 1;
nodes = (
(497,-11,o),
(660,121,o),
(703,308,cs),
(746,494,o),
(645,626,o),
(450,626,cs),
(267,626,o),
(98,494,o),
(55,308,cs),
(12,121,o),
(119,-11,o),
(302,-11,cs)
);
},
{
closed = 1;
nodes = (
(189,474,o),
(326,585,o),
(443,585,cs),
(592,585,o),
(644,466,o),
(605,298,cs),
(569,141,o),
(438,30,o),
(309,30,cs),
(173,30,o),
(114,149,o),
(153,318,cs)
);
}
);
width = 742;
}
);
note = O;
unicode = 79;
},
{
glyphname = P;
lastChange = "2025-02-17 20:21:53 +0000";
layers = (
{
anchors = (
{
name = bottom;
pos = (215,0);
},
{
name = top;
pos = (403,616);
}
);
background = {
anchors = (
{
name = bottom;
pos = (255,0);
},
{
name = center;
pos = (113,154);
},
{
name = top;
pos = (255,616);
}
);
shapes = (
{
closed = 1;
nodes = (
(-5,0,l),
(278,0,l),
(278,40,l),
(233,40,o),
(198,38,o),
(179,54,cs),
(170,62,o),
(165,73,o),
(165,91,cs),
(163,307,o),
(162,377,o),
(166,574,c),
(183,576,o),
(235,576,o),
(258,576,c),
(258,616,l),
(-5,616,l),
(-5,591,l),
(29,581,o),
(53,582,o),
(67,572,cs),
(77,565,o),
(82,552,o),
(82,525,cs),
(83,341,o),
(84,253,o),
(84,312,cs),
(84,373,o),
(83,282,o),
(82,91,cs),
(82,65,o),
(76,51,o),
(67,43,cs),
(51,29,o),
(25,31,o),
(-5,25,c)
);
},
{
closed = 1;
nodes = (
(152,318,o),
(164,318,o),
(192,318,cs),
(348,318,o),
(451,378,o),
(451,481,cs),
(451,560,o),
(371,616,o),
(258,616,c),
(258,576,l),
(319,576,o),
(362,529,o),
(362,462,cs),
(362,387,o),
(293,348,o),
(185,348,cs),
(125,348,l),
(126,318,l)
);
}
);
};
color = 2;
layerId = m003;
shapes = (
{
closed = 1;
nodes = (
(279,271,o),
(289,271,o),
(299,271,cs),
(428,271,o),
(531,337,o),
(556,448,cs),
(580,552,o),
(519,620,o),
(407,618,c),
(380,584,l),
(454,584,o),
(489,528,o),
(468,436,cs),
(447,346,o),
(372,295,o),
(273,295,c),
(268,272,l)
);
},
{
closed = 1;
nodes = (
(273,0,l),
(279,25,l),
(230,36,o),
(210,39,o),
(201,51,cs),
(193,61,o),
(194,78,o),
(201,111,cs),
(216,188,o),
(260,379,o),
(311,583,c),
(380,584,l),
(407,618,l),
(367,617,o),
(306,616,o),
(274,616,c),
(235,616,o),
(170,617,o),
(128,618,c),
(121,587,l),
(164,580,o),
(193,576,o),
(205,556,cs),
(213,545,o),
(215,531,o),
(209,507,cs),
(179,369,o),
(148,235,o),
(115,101,cs),
(109,75,o),
(102,60,o),
(90,49,cs),
(76,35,o),
(33,30,o),
(9,25,c),
(3,0,l)
);
}
);
width = 552;
}
);
metricLeft = H;
metricRight = O;
unicode = 80;
},
{
glyphname = Q;
lastChange = "2025-02-17 20:21:53 +0000";
layers = (
{
anchors = (
{
name = bottom;
pos = (310,0);
},
{
name = top;
pos = (498,616);
}
);
background = {
shapes = (
{
closed = 1;
nodes = (
(487,-11,o),
(622,121,o),
(622,308,cs),
(622,494,o),
(487,626,o),
(296,626,cs),
(107,626,o),
(-26,494,o),
(-26,308,cs),
(-26,121,o),
(107,-11,o),
(296,-11,cs)
);
},
{
closed = 1;
nodes = (
(70,471,o),
(157,585,o),
(279,585,cs),
(424,585,o),
(526,463,o),
(526,298,cs),
(526,144,o),
(438,30,o),
(313,30,cs),
(171,30,o),
(70,152,o),
(70,318,cs)
);
},
{
closed = 1;
nodes = (
(487,-11,o),
(622,121,o),
(622,308,cs),
(622,494,o),
(487,626,o),
(296,626,cs),
(107,626,o),
(-26,494,o),
(-26,308,cs),
(-26,121,o),
(107,-11,o),
(296,-11,cs)
);
},
{
closed = 1;
nodes = (
(70,471,o),
(157,585,o),
(279,585,cs),
(424,585,o),
(526,463,o),
(526,298,cs),
(526,144,o),
(438,30,o),
(313,30,cs),
(171,30,o),
(70,152,o),
(70,318,cs)
);
}
);
};
backgroundImage = {
imagePath = "../../Desktop/Bildschirmfoto 2024-12-24 um 15.25.09.png";
pos = (885,-1126);
scale = (-1.4,1.4);
};
color = 4;
layerId = m003;
shapes = (
{
closed = 1;
nodes = (
(496,-11,o),
(660,121,o),
(703,308,cs),
(746,494,o),
(644,626,o),
(456,626,cs),
(264,626,o),
(98,494,o),
(55,308,cs),
(12,121,o),
(116,-11,o),
(308,-11,cs)
);
},
{
closed = 1;
nodes = (
(189,474,o),
(321,584,o),
(443,584,cs),
(588,584,o),
(644,466,o),
(605,298,cs),
(569,141,o),
(437,30,o),
(315,30,cs),
(170,30,o),
(114,149,o),
(153,318,cs)
);
},
{
closed = 1;
nodes = (
(506,-232,o),
(689,-232,cs),
(815,-232,o),
(940,-202,o),
(1026,-153,c),
(1019,-133,l),
(938,-163,o),
(846,-179,o),
(758,-179,cs),
(592,-179,o),
(444,-98,o),
(395,29,c),
(264,11,l),
(327,-144,o)
);
}
);
width = 742;
}
);
metricLeft = O;
metricWidth = O;
unicode = 81;
},
{
glyphname = R;
lastChange = "2025-02-17 20:21:53 +0000";
layers = (
{
anchors = (
{
name = bottom;
pos = (257,0);
},
{
name = top;
pos = (445,616);
}
);
background = {
shapes = (
{
closed = 1;
nodes = (
(-24,0,l),
(259,0,l),
(259,40,l),
(214,40,o),
(179,38,o),
(160,54,cs),
(151,62,o),
(146,73,o),
(146,91,cs),
(144,307,o),
(143,377,o),
(147,574,c),
(164,576,o),
(216,576,o),
(239,576,c),
(239,616,l),
(-24,616,l),
(-24,591,l),
(10,581,o),
(34,582,o),
(48,572,cs),
(58,565,o),
(63,552,o),
(63,525,cs),
(64,341,o),
(65,253,o),
(65,312,cs),
(65,373,o),
(64,282,o),
(63,91,cs),
(63,65,o),
(57,51,o),
(48,43,cs),
(32,29,o),
(6,31,o),
(-24,25,c)
);
}
);
};
color = 2;
layerId = m003;
shapes = (
{
closed = 1;
nodes = (
(376,282,o),
(510,354,o),
(534,458,cs),
(555,550,o),
(488,620,o),
(380,618,c),
(351,576,l),
(421,576,o),
(463,526,o),
(445,446,cs),
(426,362,o),
(336,322,o),
(220,322,c),
(211,282,l)
);
},
{
closed = 1;
nodes = (
(254,0,l),
(260,27,l),
(222,31,o),
(186,41,o),
(178,53,cs),
(171,63,o),
(172,79,o),
(178,106,cs),
(240,374,o),
(258,454,o),
(290,574,c),
(351,576,l),
(380,618,l),
(330,617,o),
(302,616,o),
(253,616,c),
(214,615,o),
(173,617,o),
(128,618,c),
(122,592,l),
(155,585,o),
(185,579,o),
(193,567,cs),
(199,556,o),
(197,538,o),
(191,512,cs),
(162,376,o),
(130,238,o),
(97,104,cs),
(89,69,o),
(81,53,o),
(68,44,cs),
(54,34,o),
(33,32,o),
(-10,25,c),
(-16,0,l)
);
},
{
closed = 1;
nodes = (
(600,18,l),
(530,26,o),
(438,156,o),
(384,337,c),
(300,305,l),
(343,123,o),
(421,-5,o),
(493,-3,cs),
(596,0,l)
);
}
);
width = 636;
}
);
metricLeft = H;
unicode = 82;
},
{
glyphname = S;
lastChange = "2025-02-17 20:21:53 +0000";
layers = (
{
anchors = (
{
name = bottom;
pos = (175,0);
},
{
name = top;
pos = (363,616);
}
);
color = 4;
layerId = m003;
shapes = (
{
closed = 1;
nodes = (
(280,-9,o),
(387,69,o),
(412,176,cs),
(450,341,o),
(143,354,o),
(178,492,cs),
(191,545,o),
(255,581,o),
(323,581,cs),
(398,581,o),
(420,517,o),
(400,453,c),
(439,453,l),
(450,508,o),
(467,576,o),
(475,593,c),
(429,611,o),
(364,624,o),
(323,624,cs),
(210,624,o),
(120,550,o),
(96,446,cs),
(56,272,o),
(361,279,o),
(328,136,cs),
(314,75,o),
(234,33,o),
(153,35,cs),
(79,37,o),
(55,104,o),
(78,197,c),
(37,197,l),
(34,171,o),
(20,104,o),
(3,36,c),
(62,10,o),
(124,-9,o),
(153,-9,cs)
);
}
);
width = 471;
}
);
metricLeft = O;
metricRight = O;
unicode = 83;
},
{
glyphname = T;
lastChange = "2025-02-17 20:21:53 +0000";
layers = (
{
anchors = (
{
name = bottom;
pos = (256,0);
},
{
name = center;
pos = (350,308);
},
{
name = top;
pos = (444,616);
}
);
background = {
shapes = (
{
closed = 1;
nodes = (
(161,0,l),
(406,0,l),
(406,18,l),
(360,31,o),
(337,33,o),
(328,52,cs),
(324,60,o),
(323,73,o),
(323,91,cs),
(322,164,o),
(322,237,o),
(321,310,cs),
(320,382,o),
(322,453,o),
(323,525,cs),
(323,561,o),
(329,575,o),
(350,585,cs),
(361,590,o),
(379,591,o),
(406,598,c),
(406,616,l),
(161,616,l),
(161,598,l),
(207,585,o),
(230,583,o),
(239,565,cs),
(243,556,o),
(245,543,o),
(245,525,cs),
(246,454,o),
(247,383,o),
(247,312,cs),
(247,238,o),
(246,165,o),
(245,91,cs),
(245,55,o),
(238,42,o),
(217,32,cs),
(206,27,o),
(188,25,o),
(161,18,c)
);
}
);
};
color = 4;
layerId = m003;
shapes = (
{
closed = 1;
nodes = (
(443,0,l),
(449,28,l),
(378,42,o),
(335,46,o),
(345,100,cs),
(377,262,o),
(416,428,o),
(458,590,c),
(428,561,l),
(492,561,o),
(561,561,o),
(590,561,cs),
(626,561,o),
(672,559,o),
(651,447,c),
(691,451,l),
(705,515,o),
(715,579,o),
(718,643,c),
(706,643,l),
(645,616,l),
(488,613,o),
(335,613,o),
(193,616,c),
(154,653,l),
(145,648,l),
(117,581,o),
(96,515,o),
(78,448,c),
(117,446,l),
(149,561,o),
(184,561,o),
(248,561,cs),
(398,561,l),
(374,590,l),
(347,462,o),
(274,146,o),
(261,100,cs),
(248,54,o),
(204,41,o),
(125,28,c),
(119,0,l)
);
}
);
width = 634;
}
);
metricLeft = H;
metricRight = H;
unicode = 84;
},
{
glyphname = U;
lastChange = "2025-02-17 20:21:53 +0000";
layers = (
{
anchors = (
{
name = bottom;
pos = (275,0);
},
{
name = ogonek;
pos = (546,10);
},
{
name = top;
pos = (463,616);
},
{
name = topright;
pos = (778,616);
}
);
color = 1;
layerId = m003;
shapes = (
{
closed = 1;
nodes = (
(461,-11,o),
(578,78,o),
(609,204,cs),
(642,339,o),
(661,431,o),
(681,514,cs),
(696,578,o),
(722,588,o),
(770,588,c),
(776,616,l),
(578,616,l),
(573,592,l),
(621,582,o),
(647,553,o),
(631,481,cs),
(610,387,o),
(592,303,o),
(568,208,cs),
(544,111,o),
(442,42,o),
(336,42,cs),
(238,42,o),
(181,102,o),
(184,188,cs),
(184,197,o),
(213,327,o),
(254,503,cs),
(270,570,o),
(307,588,o),
(357,592,c),
(362,616,l),
(128,616,l),
(121,585,l),
(150,579,o),
(189,567,o),
(176,511,cs),
(170,486,o),
(143,367,o),
(105,202,cs),
(76,77,o),
(168,-11,o),
(314,-11,cs)
);
}
);
width = 671;
}
);
metricLeft = H;
metricRight = H;
unicode = 85;
},
{
glyphname = V;
lastChange = "2025-02-17 20:21:53 +0000";
layers = (
{
anchors = (
{
name = bottom;
pos = (302,0);
},
{
name = top;
pos = (490,616);
}
);
color = 4;
layerId = m003;
shapes = (
{
closed = 1;
nodes = (
(331,-24,l),
(441,153,o),
(639,444,o),
(680,505,cs),
(721,566,o),
(760,579,o),
(824,588,c),
(830,616,l),
(580,616,l),
(575,593,l),
(624,586,o),
(656,573,o),
(649,543,cs),
(644,521,o),
(624,488,o),
(600,452,cs),
(351,70,l),
(385,93,l),
(357,227,o),
(318,480,o),
(315,496,cs),
(311,512,o),
(310,528,o),
(313,543,cs),
(317,558,o),
(322,582,o),
(410,591,c),
(416,616,l),
(128,616,l),
(122,588,l),
(168,580,o),
(212,571,o),
(227,489,cs),
(318,-24,l)
);
}
);
width = 725;
}
);
metricLeft = H;
metricRight = H;
unicode = 86;
},
{
glyphname = W;
lastChange = "2025-02-17 20:21:53 +0000";
layers = (
{
anchors = (
{
name = bottom;
pos = (419,0);
},
{
name = top;
pos = (607,616);
}
);
color = 4;
layerId = m003;
shapes = (
{
closed = 1;
nodes = (
(580,487,l),
(315,75,l),
(353,98,l),
(295,496,ls),
(285,562,o),
(270,582,o),
(356,591,c),
(362,616,l),
(128,616,l),
(122,588,l),
(150,579,o),
(196,572,o),
(209,489,cs),
(288,-24,l),
(301,-24,l),
(374,108,o),
(523,321,o),
(592,438,c)
);
},
{
closed = 1;
nodes = (
(619,-24,l),
(727,153,o),
(914,444,o),
(951,505,cs),
(988,566,o),
(990,576,o),
(1058,588,c),
(1064,616,l),
(866,616,l),
(860,591,l),
(940,570,o),
(927,533,o),
(875,452,cs),
(634,70,l),
(676,99,l),
(658,233,o),
(631,480,o),
(630,496,cs),
(623,572,o),
(627,582,o),
(696,591,c),
(702,616,l),
(468,616,l),
(462,591,l),
(507,584,o),
(536,572,o),
(546,489,cs),
(606,-24,l)
);
}
);
width = 959;
}
);
metricLeft = H;
metricRight = H;
unicode = 87;
},
{
glyphname = X;
lastChange = "2025-02-17 20:21:53 +0000";
layers = (
{
anchors = (
{
name = bottom;
pos = (269,0);
},
{
name = top;
pos = (457,616);
}
);
color = 4;
guides = (
{
angle = 53;
pos = (542,661);
}
);
layerId = m003;
shapes = (
{
closed = 1;
nodes = (
(580,0,l),
(586,28,l),
(547,33,o),
(541,26,o),
(499,114,cs),
(387,351,o),
(391,351,o),
(308,512,cs),
(294,541,o),
(290,555,o),
(293,566,cs),
(296,581,o),
(312,586,o),
(364,591,c),
(370,616,l),
(128,616,l),
(122,588,l),
(156,588,o),
(172,587,o),
(215,494,cs),
(313,286,o),
(319,286,o),
(402,105,cs),
(416,76,o),
(422,58,o),
(420,47,cs),
(416,30,o),
(392,29,o),
(328,25,c),
(322,0,l)
);
},
{
closed = 1;
nodes = (
(184,0,l),
(190,25,l),
(158,28,o),
(137,32,o),
(142,54,cs),
(145,67,o),
(154,80,o),
(185,112,cs),
(368,308,l),
(340,333,l),
(116,101,ls),
(35,17,o),
(24,30,o),
(-8,28,c),
(-14,0,l)
);
},
{
closed = 1;
nodes = (
(572,504,ls),
(651,582,o),
(677,585,o),
(716,588,c),
(722,616,l),
(524,616,l),
(518,591,l),
(545,588,o),
(562,586,o),
(558,567,cs),
(554,550,o),
(529,517,o),
(475,463,cs),
(351,340,l),
(381,315,l)
);
}
);
width = 660;
}
);
metricLeft = H;
metricRight = H;
unicode = 88;
},
{
glyphname = Y;
lastChange = "2025-02-17 20:21:53 +0000";
layers = (
{
anchors = (
{
name = bottom;
pos = (221,0);
},
{
name = top;
pos = (409,616);
},
{
name = topleft;
pos = (147,616);
}
);
color = 4;
layerId = m003;
shapes = (
{
closed = 1;
nodes = (
(415,0,l),
(421,28,l),
(352,33,o),
(306,30,o),
(320,93,cs),
(372,318,l),
(344,257,l),
(549,509,ls),
(613,588,o),
(649,588,o),
(662,588,c),
(668,616,l),
(470,616,l),
(464,591,l),
(534,581,o),
(545,565,o),
(500,505,c),
(338,306,l),
(352,307,l),
(283,525,l),
(268,586,o),
(269,585,o),
(338,591,c),
(344,616,l),
(128,616,l),
(122,588,l),
(157,588,o),
(176,581,o),
(183,556,cs),
(280,243,l),
(286,293,l),
(239,93,ls),
(227,38,o),
(163,33,o),
(115,28,c),
(109,0,l)
);
}
);
width = 563;
}
);
metricLeft = H;
metricRight = H;
unicode = 89;
},
{
glyphname = Z;
lastChange = "2025-02-17 20:21:53 +0000";
layers = (
{
anchors = (
{
name = bottom;
pos = (225,0);
},
{
name = center;
pos = (319,308);
},
{
name = top;
pos = (413,616);
}
);
color = 4;
layerId = m003;
shapes = (
{
closed = 1;
nodes = (
(85,0,o),
(280,1,o),
(309,1,cs),
(339,1,o),
(409,1,o),
(450,-2,c),
(489,57,o),
(531,143,o),
(556,210,c),
(522,210,l),
(499,154,o),
(430,43,o),
(282,41,cs),
(69,38,l),
(71,24,l),
(617,594,l),
(611,621,l),
(533,616,o),
(379,615,o),
(331,615,cs),
(273,615,o),
(172,611,o),
(132,617,c),
(109,554,o),
(88,490,o),
(73,427,c),
(101,427,l),
(123,479,o),
(134,576,o),
(269,576,cs),
(344,576,o),
(460,574,o),
(517,572,c),
(513,596,l),
(-47,12,l),
(-42,0,l)
);
}
);
width = 572;
}
);
metricLeft = H;
metricRight = H;
unicode = 90;
},
{
glyphname = a;
lastChange = "2025-02-17 20:21:53 +0000";
layers = (
{
anchors = (
{
name = bottom;
pos = (164,0);
},
{
name = ogonek;
pos = (347,10);
},
{
name = top;
pos = (286,402);
}
);
layerId = m003;
shapes = (
{
closed = 1;
nodes = (
(115,-15,o),
(226,71,o),
(301,191,c),
(301,242,l),
(234,132,o),
(142,45,o),
(99,45,cs),
(76,45,o),
(79,92,o),
(110,167,cs),
(155,274,o),
(227,347,o),
(288,347,cs),
(303,347,o),
(329,331,o),
(347,318,c),
(384,367,l),
(365,377,o),
(336,379,o),
(318,379,cs),
(205,379,o),
(81,280,o),
(23,140,cs),
(-13,51,o),
(-5,-15,o),
(50,-15,cs)
);
},
{
closed = 1;
nodes = (
(319,-14,o),
(372,27,o),
(433,95,c),
(411,114,l),
(366,64,o),
(330,45,o),
(322,45,cs),
(306,45,o),
(312,86,o),
(336,156,cs),
(364,238,o),
(405,341,o),
(447,415,c),
(422,409,o),
(384,406,o),
(360,407,c),
(300,266,o),
(288,228,o),
(279,201,cs),
(275,189,o),
(272,180,o),
(265,163,cs),
(226,71,o),
(223,-14,o),
(268,-14,cs)
);
}
);
width = 450;
},
{
associatedMasterId = m003;
layerId = "0DE6FB79-B0B6-414C-BAFE-4B31CAFD69E7";
name = "7. Nov. 24, 00:06";
shapes = (
{
closed = 1;
nodes = (
(386,427,l),
(364,443,o),
(341,460,o),
(326,460,cs),
(253,460,o),
(163,346,o),
(113,184,cs),
(95,125,o),
(89,76,o),
(108,76,cs),
(131,76,o),
(206,136,o),
(276,208,c),
(293,190,l),
(187,77,o),
(81,-10,o),
(46,-10,cs),
(-3,-10,o),
(-12,61,o),
(16,152,cs),
(81,363,o),
(222,508,o),
(354,508,cs),
(374,508,o),
(402,493,o),
(424,476,c)
);
},
{
closed = 1;
nodes = (
(457,500,l),
(414,395,o),
(364,261,o),
(334,177,cs),
(307,105,o),
(302,54,o),
(322,54,cs),
(345,54,o),
(386,119,o),
(421,210,c),
(451,210,l),
(402,82,o),
(324,-8,o),
(263,-8,cs),
(220,-8,o),
(211,51,o),
(242,135,cs),
(211,52,o),
(288,250,o),
(382,500,c)
);
}
);
width = 467;
},
{
associatedMasterId = m003;
background = {
shapes = (
{
closed = 1;
nodes = (
(200,83,o),
(113,-8,o),
(67,-8,cs),
(3,-8,o),
(-18,54,o),
(15,141,cs),
(38,202,o),
(65,270,o),
(82,315,cs),
(109,387,o),
(115,438,o),
(96,438,cs),
(72,438,o),
(29,373,o),
(-8,282,c),
(-38,282,l),
(15,414,o),
(95,508,o),
(155,508,cs),
(199,508,o),
(206,445,o),
(173,357,cs),
(136,259,o),
(109,190,o),
(109,192,cs),
(83,118,o),
(83,66,o),
(110,66,cs),
(145,66,o),
(215,145,o),
(277,257,c),
(277,212,l)
);
},
{
closed = 1;
nodes = (
(442,500,l),
(402,401,o),
(351,268,o),
(319,177,cs),
(292,105,o),
(287,54,o),
(307,54,cs),
(330,54,o),
(371,119,o),
(406,210,c),
(436,210,l),
(387,82,o),
(309,-8,o),
(248,-8,cs),
(205,-8,o),
(196,51,o),
(227,135,cs),
(196,52,o),
(273,250,o),
(367,500,c)
);
}
);
};
layerId = "90AB4BE1-A270-4CBB-8974-CA3C0A24FD98";
name = "8. Nov. 24, 10:52";
shapes = (
{
closed = 1;
nodes = (
(376,417,l),
(343,441,o),
(313,452,o),
(286,452,cs),
(209,452,o),
(152,362,o),
(103,205,cs),
(89,162,o),
(82,126,o),
(82,101,cs),
(82,79,o),
(101,56,o),
(112,56,cs),
(166,56,o),
(230,120,o),
(286,197,c),
(293,190,l),
(221,73,o),
(135,-10,o),
(86,-10,cs),
(16,-10,o),
(-13,57,o),
(16,152,cs),
(80,361,o),
(220,508,o),
(354,508,cs),
(372,508,o),
(401,495,o),
(424,476,c)
);
},
{
closed = 1;
nodes = (
(460,508,l),
(424,421,o),
(372,284,o),
(334,177,cs),
(307,105,o),
(302,54,o),
(322,54,cs),
(345,54,o),
(386,119,o),
(421,210,c),
(451,210,l),
(402,82,o),
(324,-8,o),
(263,-8,cs),
(220,-8,o),
(211,51,o),
(242,135,cs),
(211,52,o),
(288,250,o),
(382,500,c)
);
},
{
closed = 1;
nodes = (
(89,-10,o),
(183,73,o),
(293,190,c),
(276,208,l),
(195,125,o),
(126,66,o),
(109,66,cs),
(83,66,o),
(82,115,o),
(107,184,cs),
(166,346,o),
(257,460,o),
(326,460,cs),
(335,460,o),
(359,446,o),
(386,427,c),
(424,476,l),
(400,495,o),
(371,508,o),
(354,508,cs),
(232,508,o),
(91,361,o),
(15,152,cs),
(-19,57,o),
(2,-10,o),
(66,-10,cs)
);
}
);
width = 467;
}
);
metricLeft = o;
unicode = 97;
},
{
glyphname = b;
lastChange = "2025-02-17 20:21:53 +0000";
layers = (
{
anchors = (
{
name = bottom;
pos = (156,0);
},
{
name = center;
pos = (203,510);
},
{
name = top;
pos = (278,402);
}
);
layerId = m003;
shapes = (
{
closed = 1;
nodes = (
(218,-15,o),
(329,63,o),
(374,172,cs),
(430,306,o),
(398,404,o),
(294,404,cs),
(242,404,o),
(175,374,o),
(130,330,c),
(130,285,l),
(163,326,o),
(214,355,o),
(254,355,cs),
(327,355,o),
(343,270,o),
(291,146,cs),
(261,73,o),
(199,23,o),
(140,23,cs),
(100,23,o),
(87,66,o),
(110,130,cs),
(172,300,o),
(227,452,o),
(259,542,cs),
(273,580,o),
(295,629,o),
(311,662,c),
(283,646,o),
(194,635,o),
(105,635,c),
(98,606,l),
(162,609,o),
(200,598,o),
(194,583,c),
(191,567,o),
(184,543,o),
(178,525,cs),
(29,102,ls),
(4,33,o),
(37,-15,o),
(106,-15,cs)
);
}
);
width = 433;
}
);
metricLeft = l;
metricRight = o;
unicode = 98;
},
{
glyphname = c;
lastChange = "2025-02-18 18:39:30 +0000";
layers = (
{
anchors = (
{
name = bottom;
pos = (120,0);
},
{
name = top;
pos = (242,402);
}
);
background = {
shapes = (
{
closed = 1;
nodes = (
(154,-12,o),
(234,32,o),
(286,93,c),
(268,111,l),
(228,67,o),
(174,42,o),
(135,42,cs),
(83,42,o),
(74,115,o),
(119,225,cs),
(153,311,o),
(205,367,o),
(245,367,cs),
(266,367,o),
(272,345,o),
(258,307,cs),
(237,254,o),
(162,207,o),
(78,192,c),
(70,160,l),
(198,184,o),
(307,254,o),
(335,323,cs),
(354,375,o),
(327,412,o),
(271,412,cs),
(180,412,o),
(81,324,o),
(33,200,cs),
(-14,76,o),
(10,-12,o),
(92,-12,cs)
);
}
);
};
layerId = m003;
shapes = (
{
closed = 1;
nodes = (
(164,-14,o),
(246,30,o),
(299,93,c),
(278,114,l),
(240,73,o),
(185,44,o),
(145,44,cs),
(96,44,o),
(89,117,o),
(131,224,cs),
(169,320,o),
(223,387,o),
(262,387,cs),
(296,387,o),
(305,350,o),
(282,294,c),
(279,284,o),
(282,275,o),
(291,275,cs),
(324,275,o),
(354,293,o),
(363,316,cs),
(384,374,o),
(347,414,o),
(277,414,cs),
(187,414,o),
(89,325,o),
(41,201,cs),
(-8,75,o),
(17,-14,o),
(102,-14,cs)
);
}
);
width = 351;
}
);
metricLeft = o;
metricRight = o;
unicode = 99;
},
{
glyphname = d;
lastChange = "2025-02-17 20:21:53 +0000";
layers = (
{
anchors = (
{
name = bottom;
pos = (157,0);
},
{
name = center;
pos = (421,510);
},
{
name = top;
pos = (279,402);
},
{
name = topright;
pos = (548,637);
}
);
layerId = m003;
shapes = (
{
closed = 1;
nodes = (
(299,-14,o),
(371,25,o),
(405,79,c),
(385,97,l),
(359,62,o),
(324,38,o),
(300,38,cs),
(287,38,o),
(286,64,o),
(301,105,cs),
(341,216,o),
(419,429,o),
(460,540,cs),
(469,565,o),
(491,616,o),
(512,660,c),
(476,644,o),
(387,633,o),
(306,633,c),
(299,604,l),
(363,607,o),
(401,597,o),
(395,580,c),
(393,564,o),
(385,541,o),
(379,523,cs),
(352,448,o),
(326,375,o),
(302,309,cs),
(255,177,o),
(220,79,o),
(218,72,cs),
(205,23,o),
(211,-14,o),
(235,-14,cs)
);
},
{
closed = 1;
nodes = (
(115,-15,o),
(226,71,o),
(301,191,c),
(301,242,l),
(234,132,o),
(142,45,o),
(99,45,cs),
(76,45,o),
(79,92,o),
(110,167,cs),
(155,274,o),
(227,347,o),
(288,347,cs),
(303,347,o),
(329,331,o),
(347,318,c),
(384,367,l),
(365,377,o),
(336,379,o),
(318,379,cs),
(205,379,o),
(81,280,o),
(23,140,cs),
(-13,51,o),
(-5,-15,o),
(50,-15,cs)
);
}
);
width = 435;
},
{
associatedMasterId = m003;
layerId = "993377BE-703F-43F0-9103-9C55914F64D0";
name = "7. Nov. 24, 00:11";
shapes = (
{
closed = 1;
nodes = (
(98,-3,o),
(197,77,o),
(303,190,c),
(286,208,l),
(216,136,o),
(150,85,o),
(127,85,cs),
(108,85,o),
(107,127,o),
(125,186,cs),
(175,348,o),
(261,463,o),
(334,463,cs),
(348,463,o),
(373,451,o),
(396,435,c),
(434,484,l),
(412,501,o),
(382,513,o),
(362,513,cs),
(230,513,o),
(91,363,o),
(26,152,cs),
(-2,61,o),
(14,-3,o),
(63,-3,cs)
);
},
{
closed = 1;
nodes = (
(326,-6,o),
(410,88,o),
(463,220,c),
(433,220,l),
(402,142,o),
(359,87,o),
(330,87,cs),
(318,87,o),
(325,128,o),
(347,187,cs),
(369,248,o),
(481,573,o),
(531,701,c),
(456,701,l),
(255,145,l),
(222,57,o),
(225,-6,o),
(262,-6,cs)
);
},
{
closed = 1;
nodes = (
(336,648,l),
(391,651,o),
(437,635,o),
(447,610,c),
(456,701,l),
(342,702,l)
);
}
);
width = 463;
}
);
metricLeft = o;
metricWidth = a;
unicode = 100;
},
{
glyphname = e;
lastChange = "2025-02-17 20:21:53 +0000";
layers = (
{
anchors = (
{
name = bottom;
pos = (121,0);
},
{
name = ogonek;
pos = (270,10);
},
{
name = top;
pos = (243,402);
}
);
layerId = m003;
shapes = (
{
closed = 1;
nodes = (
(165,-14,o),
(246,30,o),
(299,93,c),
(278,114,l),
(238,69,o),
(184,44,o),
(145,44,cs),
(95,44,o),
(86,114,o),
(131,224,cs),
(165,310,o),
(216,365,o),
(255,365,cs),
(274,365,o),
(279,344,o),
(266,308,cs),
(245,255,o),
(171,209,o),
(86,194,c),
(77,157,l),
(208,181,o),
(319,253,o),
(347,322,cs),
(367,376,o),
(338,414,o),
(281,414,cs),
(189,414,o),
(89,325,o),
(41,201,cs),
(-6,77,o),
(18,-14,o),
(102,-14,cs)
);
}
);
width = 364;
}
);
metricLeft = o;
unicode = 101;
},
{
glyphname = f;
lastChange = "2025-02-17 20:21:53 +0000";
layers = (
{
anchors = (
{
name = bottom;
pos = (79,0);
},
{
name = top;
pos = (273,637);
}
);
background = {
shapes = (
{
closed = 0;
nodes = (
(33,81,ls),
(22,33,o),
(-7,-90,o),
(-49,-138,cs),
(-59,-150,o),
(-70,-157,o),
(-82,-157,cs),
(-101,-158,o),
(-98,-135,o),
(-117,-134,cs),
(-150,-134,o),
(-180,-163,o),
(-189,-205,cs),
(-193,-220,o),
(-178,-232,o),
(-152,-232,cs),
(-118,-232,o),
(-53,-190,o),
(-29,-164,cs),
(34,-96,o),
(96,29,o),
(121,148,cs)
);
}
);
};
layerId = m003;
shapes = (
{
closed = 1;
nodes = (
(-97,-234,o),
(-56,-202,o),
(-17,-164,cs),
(76,-78,o),
(116,68,o),
(133,148,cs),
(140,180,o),
(146,210,o),
(153,241,cs),
(170,323,o),
(186,402,o),
(207,486,cs),
(226,562,o),
(279,608,o),
(320,608,cs),
(364,608,o),
(387,581,o),
(375,542,cs),
(370,529,o),
(376,520,o),
(386,520,cs),
(417,520,o),
(446,538,o),
(452,561,cs),
(465,610,o),
(421,643,o),
(346,643,cs),
(245,643,o),
(141,559,o),
(113,434,cs),
(102,383,o),
(89,318,o),
(77,254,cs),
(61,175,o),
(45,95,o),
(31,32,cs),
(11,-55,o),
(1,-89,o),
(-41,-137,cs),
(-51,-149,o),
(-63,-155,o),
(-72,-155,cs),
(-80,-155,o),
(-83,-151,o),
(-88,-144,cs),
(-92,-138,o),
(-96,-132,o),
(-107,-132,cs),
(-139,-132,o),
(-172,-163,o),
(-181,-205,cs),
(-184,-220,o),
(-169,-234,o),
(-142,-234,cs)
);
},
{
closed = 1;
nodes = (
(268,357,l),
(285,406,l),
(106,402,l),
(20,382,l),
(16,369,l)
);
}
);
width = 279;
}
);
metricWidth = l;
unicode = 102;
},
{
glyphname = g;
lastChange = "2025-02-17 20:21:53 +0000";
layers = (
{
anchors = (
{
name = bottom;
pos = (75,-230);
},
{
name = top;
pos = (268,402);
}
);
layerId = m003;
shapes = (
{
closed = 1;
nodes = (
(209,-173,o),
(308,-134,o),
(321,-79,cs),
(343,10,o),
(256,35,o),
(184,56,cs),
(140,69,o),
(105,80,o),
(109,101,cs),
(113,123,o),
(138,140,o),
(172,142,c),
(172,146,l),
(131,154,l),
(93,139,o),
(60,108,o),
(54,83,cs),
(38,14,o),
(109,-8,o),
(172,-28,cs),
(222,-44,o),
(264,-58,o),
(256,-90,cs),
(249,-118,o),
(196,-138,o),
(129,-138,cs),
(35,-138,o),
(-20,-92,o),
(-3,-23,cs),
(4,4,o),
(52,29,o),
(115,40,c),
(88,61,l),
(-4,44,o),
(-79,-4,o),
(-90,-55,cs),
(-107,-123,o),
(-36,-173,o),
(82,-173,cs)
);
},
{
closed = 1;
nodes = (
(238,127,o),
(307,184,o),
(325,264,cs),
(346,351,o),
(305,414,o),
(226,414,cs),
(152,414,o),
(87,359,o),
(69,281,cs),
(48,192,o),
(87,127,o),
(161,127,cs)
);
},
{
closed = 1;
nodes = (
(134,154,o),
(127,208,o),
(150,288,cs),
(166,346,o),
(195,386,o),
(221,386,cs),
(252,386,o),
(262,332,o),
(244,253,cs),
(230,194,o),
(198,154,o),
(166,154,cs)
);
},
{
closed = 1;
nodes = (
(302,284,o),
(351,358,o),
(383,358,cs),
(386,358,o),
(390,357,o),
(394,356,cs),
(398,355,o),
(402,354,o),
(404,354,cs),
(415,354,o),
(430,368,o),
(437,386,cs),
(443,403,o),
(432,414,o),
(414,414,cs),
(370,414,o),
(303,332,o),
(253,220,c),
(267,178,l)
);
}
);
width = 413;
},
{
associatedMasterId = m003;
background = {
shapes = (
{
closed = 0;
nodes = (
(-67,-200,l),
(278,700,l)
);
},
{
closed = 0;
nodes = (
(8,-200,l),
(353,700,l)
);
},
{
closed = 0;
nodes = (
(148,-200,l),
(493,700,l)
);
},
{
closed = 0;
nodes = (
(223,-200,l),
(568,700,l)
);
},
{
closed = 0;
nodes = (
(-172,-200,l),
(173,700,l)
);
},
{
closed = 0;
nodes = (
(-142,-200,l),
(203,700,l)
);
},
{
closed = 0;
nodes = (
(298,-200,l),
(643,700,l)
);
},
{
closed = 0;
nodes = (
(328,-200,l),
(673,700,l)
);
}
);
};
layerId = "CD19AF2B-D444-4E18-A45E-DA9D7905EDAB";
name = "6. Nov. 24, 23:26";
shapes = (
{
closed = 1;
nodes = (
(199,-248,o),
(311,-189,o),
(339,-100,cs),
(353,-51,o),
(314,-3,o),
(245,16,cs),
(162,38,o),
(104,68,o),
(104,88,cs),
(104,101,o),
(126,128,o),
(157,154,c),
(123,163,l),
(88,130,o),
(60,97,o),
(55,83,cs),
(39,39,o),
(55,0,o),
(93,-11,cs),
(202,-41,o),
(271,-89,o),
(261,-126,cs),
(250,-165,o),
(192,-196,o),
(120,-201,cs),
(-1,-209,o),
(-69,-161,o),
(-44,-85,cs),
(-31,-48,o),
(30,-6,o),
(103,18,c),
(81,45,l),
(-35,9,o),
(-124,-51,o),
(-134,-101,cs),
(-153,-191,o),
(-69,-249,o),
(68,-241,cs)
);
},
{
closed = 1;
nodes = (
(229,132,o),
(298,192,o),
(328,279,cs),
(367,399,o),
(333,482,o),
(244,479,cs),
(166,476,o),
(88,411,o),
(57,323,cs),
(16,206,o),
(58,128,o),
(160,135,cs)
);
},
{
closed = 1;
nodes = (
(125,182,o),
(111,246,o),
(140,339,cs),
(157,394,o),
(188,434,o),
(216,435,cs),
(263,437,o),
(274,366,o),
(243,264,cs),
(228,215,o),
(199,182,o),
(171,184,cs)
);
},
{
closed = 1;
nodes = (
(337,397,o),
(345,432,o),
(367,434,cs),
(384,435,o),
(430,405,o),
(441,389,c),
(470,411,l),
(463,454,o),
(444,484,o),
(424,484,cs),
(378,484,o),
(323,451,o),
(292,404,c),
(310,377,l)
);
}
);
width = 414;
}
);
unicode = 103;
},
{
glyphname = h;
lastChange = "2025-02-17 20:21:53 +0000";
layers = (
{
anchors = (
{
name = bottom;
pos = (163,0);
},
{
name = center;
pos = (206,510);
},
{
name = top;
pos = (357,637);
}
);
layerId = m003;
shapes = (
{
closed = 1;
nodes = (
(262,-14,o),
(342,66,o),
(389,178,cs),
(447,314,o),
(426,414,o),
(338,414,cs),
(276,414,o),
(181,324,o),
(106,196,c),
(132,179,l),
(183,279,o),
(246,349,o),
(284,349,cs),
(346,349,o),
(355,268,o),
(305,150,cs),
(273,72,o),
(239,18,o),
(222,18,cs),
(211,18,o),
(210,40,o),
(222,75,cs),
(226,84,o),
(224,94,o),
(216,94,cs),
(187,94,o),
(159,80,o),
(151,61,cs),
(134,17,o),
(154,-14,o),
(196,-14,cs)
);
},
{
closed = 1;
nodes = (
(10,-10,o),
(42,-7,o),
(70,-7,c),
(106,104,o),
(220,432,o),
(262,543,cs),
(272,568,o),
(294,619,o),
(314,663,c),
(277,647,o),
(189,636,o),
(107,636,c),
(103,607,l),
(166,610,o),
(204,600,o),
(197,584,c),
(194,568,o),
(188,544,o),
(182,526,cs),
(160,465,o),
(141,411,o),
(122,358,cs),
(72,216,o),
(32,100,o),
(-20,-16,c)
);
}
);
width = 448;
}
);
metricLeft = l;
metricRight = o;
unicode = 104;
},
{
glyphname = i;
lastChange = "2025-02-17 20:21:53 +0000";
layers = (
{
anchors = (
{
name = bottom;
pos = (72,0);
}
);
layerId = m003;
shapes = (
{
closed = 1;
nodes = (
(232,528,o),
(255,544,o),
(262,563,cs),
(271,589,o),
(252,609,o),
(222,609,cs),
(200,609,o),
(178,593,o),
(172,574,cs),
(165,549,o),
(180,528,o),
(208,528,cs)
);
},
{
closed = 1;
nodes = (
(32,80,ls),
(9,27,o),
(14,-14,o),
(46,-14,cs),
(94,-14,o),
(167,28,o),
(220,84,c),
(199,104,l),
(156,66,o),
(120,40,o),
(111,40,cs),
(100,40,o),
(101,63,o),
(117,100,cs),
(217,339,ls),
(241,397,o),
(230,414,o),
(198,414,cs),
(149,414,o),
(86,368,o),
(36,320,c),
(58,299,l),
(88,330,o),
(119,353,o),
(134,353,cs),
(141,353,o),
(136,325,o),
(117,281,cs)
);
}
);
width = 266;
}
);
unicode = 105;
},
{
glyphname = j;
lastChange = "2025-02-17 20:05:56 +0000";
layers = (
{
layerId = m003;
shapes = (
{
closed = 1;
nodes = (
(-41,-234,o),
(111,-78,o),
(150,74,cs),
(219,343,ls),
(230,385,o),
(226,414,o),
(194,414,cs),
(190,414,l),
(187,414,l),
(186,414,ls),
(148,409,o),
(86,372,o),
(32,320,c),
(54,299,l),
(84,330,o),
(116,353,o),
(130,353,cs),
(132,353,o),
(133,353,o),
(134,348,c),
(133,334,o),
(126,302,o),
(116,260,cs),
(70,62,ls),
(39,-72,o),
(-17,-155,o),
(-36,-155,cs),
(-44,-155,o),
(-47,-151,o),
(-52,-144,cs),
(-56,-138,o),
(-60,-132,o),
(-71,-132,cs),
(-104,-132,o),
(-136,-163,o),
(-143,-196,cs),
(-149,-220,o),
(-133,-234,o),
(-106,-234,cs)
);
},
{
closed = 1;
nodes = (
(246,495,o),
(272,511,o),
(278,534,cs),
(286,560,o),
(268,576,o),
(237,576,cs),
(207,576,o),
(180,559,o),
(172,536,c),
(167,512,o),
(184,495,o),
(215,495,cs)
);
}
);
width = 246;
},
{
associatedMasterId = m003;
background = {
shapes = (
{
closed = 1;
nodes = (
(-22,-158,o),
(-76,-230,o),
(-122,-230,cs),
(-160,-230,o),
(-169,-180,o),
(-144,-109,cs),
(-138,-93,o),
(-142,-81,o),
(-153,-81,cs),
(-194,-81,o),
(-232,-105,o),
(-244,-139,cs),
(-268,-209,o),
(-226,-258,o),
(-143,-258,cs),
(-43,-258,o),
(53,-169,o),
(89,-43,c),
(7,-57,l)
);
}
);
};
layerId = "F26A99E2-B18E-42DF-831C-82EB1608A556";
name = "7. Nov. 24, 19:28";
shapes = (
{
closed = 1;
nodes = (
(-12,-106,o),
(-57,-181,o),
(-103,-181,cs),
(-141,-181,o),
(-150,-131,o),
(-125,-60,cs),
(-119,-44,o),
(-123,-32,o),
(-134,-32,cs),
(-175,-32,o),
(-213,-56,o),
(-225,-90,cs),
(-249,-160,o),
(-207,-209,o),
(-124,-209,cs),
(-24,-209,o),
(60,-116,o),
(108,6,cs),
(254,381,l),
(277,455,o),
(264,508,o),
(224,508,cs),
(163,508,o),
(85,418,o),
(36,290,c),
(66,290,l),
(101,381,o),
(142,446,o),
(165,446,cs),
(185,446,o),
(180,395,o),
(153,323,cs),
(26,-8,ls)
);
},
{
closed = 1;
nodes = (
(283,612,o),
(311,631,o),
(319,659,cs),
(328,687,o),
(311,706,o),
(279,706,cs),
(247,706,o),
(218,687,o),
(209,659,cs),
(201,631,o),
(218,612,o),
(250,612,cs)
);
}
);
width = 263;
}
);
metricWidth = i;
unicode = 106;
},
{
glyphname = k;
lastChange = "2025-02-17 20:21:53 +0000";
layers = (
{
anchors = (
{
name = bottom;
pos = (155,0);
},
{
name = top;
pos = (349,637);
}
);
layerId = m003;
shapes = (
{
closed = 1;
nodes = (
(310,264,ls),
(360,291,o),
(394,338,o),
(393,373,cs),
(392,396,o),
(370,414,o),
(341,414,cs),
(278,414,o),
(204,381,o),
(143,280,c),
(145,235,l),
(198,332,o),
(255,357,o),
(305,357,cs),
(315,357,o),
(322,347,o),
(322,334,cs),
(322,316,o),
(301,291,o),
(269,274,cs),
(72,165,l),
(75,134,l)
);
},
{
closed = 1;
nodes = (
(4,-10,o),
(35,-7,o),
(65,-7,c),
(99,104,o),
(213,428,o),
(255,539,cs),
(264,564,o),
(286,615,o),
(306,659,c),
(269,643,o),
(181,632,o),
(100,632,c),
(95,603,l),
(158,606,o),
(196,596,o),
(190,580,c),
(187,564,o),
(180,540,o),
(174,522,cs),
(151,458,o),
(131,402,o),
(112,348,cs),
(64,211,o),
(25,98,o),
(-26,-16,c)
);
},
{
closed = 1;
nodes = (
(392,102,l),
(364,70,o),
(337,47,o),
(324,45,cs),
(300,43,o),
(255,129,o),
(238,253,c),
(170,211,l),
(186,79,o),
(237,-14,o),
(272,-14,cs),
(305,-14,o),
(362,25,o),
(412,80,c)
);
}
);
width = 431;
}
);
unicode = 107;
},
{
glyphname = l;
lastChange = "2025-02-17 20:21:53 +0000";
layers = (
{
anchors = (
{
name = bottom;
pos = (54,0);
},
{
name = center;
pos = (115,201);
},
{
name = top;
pos = (248,637);
},
{
name = topright;
pos = (343,637);
}
);
layerId = m003;
shapes = (
{
closed = 1;
nodes = (
(94,-14,o),
(165,25,o),
(199,79,c),
(180,97,l),
(154,62,o),
(119,38,o),
(95,38,cs),
(82,38,o),
(81,64,o),
(96,105,cs),
(122,177,o),
(148,250,o),
(174,322,cs),
(200,393,o),
(227,466,o),
(253,538,cs),
(262,563,o),
(284,614,o),
(305,658,c),
(269,642,o),
(180,631,o),
(99,631,c),
(92,602,l),
(156,605,o),
(194,595,o),
(188,578,c),
(186,562,o),
(178,539,o),
(172,521,cs),
(145,445,o),
(119,371,o),
(92,296,cs),
(65,221,o),
(38,146,o),
(12,72,c),
(-1,23,o),
(6,-14,o),
(30,-14,cs)
);
}
);
width = 230;
}
);
unicode = 108;
},
{
glyphname = m;
lastChange = "2025-02-17 20:21:53 +0000";
layers = (
{
anchors = (
{
name = bottom;
pos = (281,0);
},
{
name = top;
pos = (403,402);
}
);
background = {
shapes = (
{
closed = 1;
nodes = (
(75,393,o),
(116,427,o),
(125,427,qs),
(130,427,o),
(134,417,o),
(134,411,qs),
(134,396,o),
(119,333,o),
(97,261,o),
(72,187,o),
(62,158,qs),
(5,-1,l),
(7,-7,l),
(20,-4,o),
(38,-2,o),
(53,0,o),
(70,2,o),
(82,4,q),
(88,25,o),
(104,75,o),
(128,135,o),
(164,206,o),
(191,249,qs),
(218,292,o),
(269,358,o),
(313,404,o),
(345,427,o),
(353,427,qs),
(362,427,o),
(362,415,qs),
(362,401,o),
(346,341,o),
(322,262,o),
(292,173,o),
(262,89,o),
(236,21,o),
(229,0,q),
(233,-7,l),
(254,-2,o),
(282,1,o),
(307,4,q),
(311,21,o),
(320,51,o),
(333,86,o),
(354,131,o),
(370,163,qs),
(403,227,o),
(475,328,o),
(539,398,o),
(587,434,o),
(598,434,qs),
(600,434,o),
(608,431,o),
(608,424,qs),
(608,422,o),
(605,405,o),
(594,370,o),
(574,313,o),
(557,272,qs),
(538,227,o),
(513,164,o),
(495,119,o),
(484,86,o),
(480,71,qs),
(478,66,o),
(473,42,o),
(473,30,qs),
(473,6,o),
(499,-10,o),
(511,-10,qs),
(530,-10,o),
(574,15,o),
(617,54,o),
(659,101,o),
(676,122,q),
(656,144,l),
(645,131,o),
(620,101,o),
(594,75,o),
(571,58,o),
(562,58,qs),
(558,58,o),
(554,61,o),
(554,68,qs),
(554,74,o),
(564,104,o),
(577,140,o),
(590,173,o),
(594,182,qs),
(621,250,o),
(658,345,o),
(680,409,o),
(690,453,o),
(690,470,qs),
(690,495,o),
(665,510,o),
(653,510,qs),
(633,510,o),
(565,474,o),
(521,431,qs),
(483,392,o),
(418,303,o),
(386,254,q),
(392,274,o),
(408,322,o),
(423,372,o),
(436,418,o),
(439,436,qs),
(441,444,o),
(443,459,o),
(443,468,qs),
(443,487,o),
(428,509,o),
(411,509,qs),
(402,509,o),
(370,498,o),
(323,467,o),
(264,407,o),
(228,357,qs),
(226,354,o),
(206,326,o),
(182,292,o),
(161,260,o),
(158,254,q),
(170,289,o),
(193,359,o),
(202,396,qs),
(210,428,o),
(215,460,o),
(215,469,qs),
(215,489,o),
(197,509,o),
(182,509,qs),
(162,509,o),
(120,483,o),
(78,442,o),
(39,393,o),
(22,371,q),
(43,350,l)
);
}
);
};
layerId = m003;
shapes = (
{
closed = 1;
nodes = (
(521,-15,o),
(572,25,o),
(636,95,c),
(615,116,l),
(578,75,o),
(540,44,o),
(526,44,cs),
(516,44,o),
(532,83,o),
(561,145,cs),
(617,271,ls),
(653,352,o),
(666,415,o),
(611,415,cs),
(546,415,o),
(410,301,o),
(331,144,c),
(301,25,l),
(366,183,o),
(506,349,o),
(564,349,cs),
(579,349,o),
(563,314,o),
(535,249,cs),
(463,91,ls),
(423,0,o),
(452,-15,o),
(484,-15,cs)
);
},
{
closed = 1;
nodes = (
(35,-9,o),
(60,-5,o),
(86,-4,c),
(163,209,o),
(198,318,o),
(202,333,cs),
(216,387,o),
(211,414,o),
(175,414,cs),
(137,414,o),
(96,378,o),
(26,300,c),
(50,279,l),
(82,321,o),
(112,343,o),
(124,343,cs),
(137,343,o),
(127,298,o),
(113,258,cs),
(51,80,o),
(25,23,o),
(9,-14,c)
);
},
{
closed = 1;
nodes = (
(237,-11,o),
(270,-5,o),
(293,-5,c),
(301,22,o),
(352,163,o),
(381,243,cs),
(388,262,o),
(395,279,o),
(398,288,cs),
(423,360,o),
(430,414,o),
(392,414,cs),
(323,414,o),
(209,304,o),
(124,153,c),
(106,54,l),
(160,191,o),
(300,344,o),
(335,344,cs),
(346,344,o),
(339,304,o),
(309,224,cs),
(270,118,o),
(235,31,o),
(214,-15,c)
);
}
);
width = 683;
}
);
metricLeft = n;
metricRight = n;
unicode = 109;
},
{
glyphname = n;
lastChange = "2025-02-17 20:21:53 +0000";
layers = (
{
anchors = (
{
name = bottom;
pos = (173,0);
},
{
name = top;
pos = (295,402);
}
);
layerId = m003;
shapes = (
{
closed = 1;
nodes = (
(37,-7,o),
(62,-3,o),
(88,-2,c),
(166,213,o),
(198,318,o),
(202,333,cs),
(216,387,o),
(211,414,o),
(175,414,cs),
(137,414,o),
(96,378,o),
(26,300,c),
(50,279,l),
(82,321,o),
(112,343,o),
(124,343,cs),
(137,343,o),
(127,298,o),
(113,258,cs),
(51,80,o),
(27,24,o),
(11,-12,c)
);
},
{
closed = 1;
nodes = (
(312,-15,o),
(363,25,o),
(427,95,c),
(406,116,l),
(369,75,o),
(331,44,o),
(317,44,cs),
(307,44,o),
(323,83,o),
(351,145,cs),
(402,271,ls),
(438,352,o),
(451,415,o),
(396,415,cs),
(330,415,o),
(194,301,o),
(116,144,c),
(86,25,l),
(151,183,o),
(291,349,o),
(349,349,cs),
(363,349,o),
(348,314,o),
(320,249,cs),
(254,91,ls),
(213,0,o),
(243,-15,o),
(275,-15,cs)
);
}
);
width = 468;
}
);
unicode = 110;
},
{
glyphname = o;
lastChange = "2025-02-17 20:21:53 +0000";
layers = (
{
anchors = (
{
name = bottom;
pos = (148,0);
},
{
name = center;
pos = (209,201);
},
{
name = ogonek;
pos = (318,10);
},
{
name = top;
pos = (270,402);
},
{
name = topright;
pos = (459,402);
}
);
layerId = m003;
shapes = (
{
closed = 1;
nodes = (
(222,-14,o),
(311,55,o),
(352,150,cs),
(418,305,o),
(384,414,o),
(270,414,cs),
(186,414,o),
(97,343,o),
(56,244,cs),
(-7,93,o),
(27,-14,o),
(139,-14,cs)
);
},
{
closed = 1;
nodes = (
(85,13,o),
(83,116,o),
(147,266,cs),
(177,337,o),
(224,387,o),
(261,387,cs),
(326,387,o),
(327,281,o),
(261,127,cs),
(232,60,o),
(186,13,o),
(149,13,cs)
);
}
);
width = 418;
}
);
unicode = 111;
},
{
glyphname = p;
lastChange = "2025-02-18 18:44:08 +0000";
layers = (
{
anchors = (
{
name = bottom;
pos = (159,0);
},
{
name = top;
pos = (281,402);
}
);
layerId = m003;
shapes = (
{
closed = 1;
nodes = (
(269,28,o),
(349,98,o),
(398,221,cs),
(443,333,o),
(402,412,o),
(299,412,cs),
(182,412,o),
(63,349,o),
(13,262,c),
(31,230,l),
(74,308,o),
(168,363,o),
(259,363,cs),
(331,363,o),
(355,295,o),
(315,195,cs),
(281,112,o),
(228,67,o),
(163,67,cs),
(147,67,o),
(121,79,o),
(103,96,c),
(94,48,l),
(110,37,o),
(144,28,o),
(173,28,cs)
);
},
{
closed = 1;
nodes = (
(175,-192,l),
(181,-167,l),
(143,-161,o),
(121,-160,o),
(111,-151,cs),
(102,-143,o),
(102,-129,o),
(108,-101,cs),
(232,463,l),
(158,458,l),
(32,-101,ls),
(25,-130,o),
(18,-145,o),
(6,-153,cs),
(-12,-165,o),
(-35,-162,o),
(-71,-167,c),
(-77,-192,l)
);
}
);
width = 440;
},
{
associatedMasterId = m003;
background = {
shapes = (
{
closed = 0;
nodes = (
(-67,-200,l),
(278,700,l)
);
},
{
closed = 0;
nodes = (
(8,-200,l),
(353,700,l)
);
},
{
closed = 0;
nodes = (
(148,-200,l),
(493,700,l)
);
},
{
closed = 0;
nodes = (
(223,-200,l),
(568,700,l)
);
},
{
closed = 0;
nodes = (
(-172,-200,l),
(173,700,l)
);
},
{
closed = 0;
nodes = (
(-142,-200,l),
(203,700,l)
);
},
{
closed = 0;
nodes = (
(298,-200,l),
(643,700,l)
);
},
{
closed = 0;
nodes = (
(328,-200,l),
(673,700,l)
);
}
);
};
layerId = "029680C6-E5C4-473E-9EF7-0B855439BBB5";
name = "6. Nov. 24, 23:23";
shapes = (
{
closed = 1;
nodes = (
(249,-51,o),
(409,59,o),
(470,275,cs),
(504,396,o),
(462,506,o),
(347,506,cs),
(261,506,o),
(134,431,o),
(40,325,c),
(57,299,l),
(143,391,o),
(245,456,o),
(304,456,cs),
(382,456,o),
(401,364,o),
(371,255,cs),
(323,81,o),
(208,-13,o),
(136,41,c),
(127,8,l)
);
},
{
closed = 1;
nodes = (
(200,-200,l),
(209,-172,l),
(95,-172,l),
(278,568,l),
(207,562,l),
(16,-172,l),
(-81,-172,l),
(-89,-200,l)
);
}
);
width = 502;
}
);
metricRight = o;
unicode = 112;
},
{
glyphname = q;
lastChange = "2025-02-18 18:45:32 +0000";
layers = (
{
anchors = (
{
name = bottom;
pos = (251,-193);
},
{
name = top;
pos = (267,402);
}
);
layerId = m003;
shapes = (
{
closed = 1;
nodes = (
(119,-15,o),
(230,71,o),
(305,191,c),
(305,242,l),
(238,132,o),
(146,45,o),
(103,45,cs),
(80,45,o),
(83,92,o),
(114,167,cs),
(159,274,o),
(231,347,o),
(292,347,cs),
(307,347,o),
(333,331,o),
(351,318,c),
(388,367,l),
(369,377,o),
(340,379,o),
(322,379,cs),
(209,379,o),
(85,280,o),
(27,140,cs),
(-9,51,o),
(-1,-15,o),
(54,-15,cs)
);
},
{
closed = 1;
nodes = (
(346,-192,l),
(352,-167,l),
(314,-161,o),
(291,-160,o),
(281,-151,cs),
(272,-143,o),
(273,-129,o),
(279,-101,cs),
(394,388,l),
(320,383,l),
(203,-101,ls),
(196,-130,o),
(190,-145,o),
(178,-153,cs),
(160,-165,o),
(136,-162,o),
(100,-167,c),
(94,-192,l)
);
}
);
width = 412;
},
{
associatedMasterId = m003;
background = {
shapes = (
{
closed = 0;
nodes = (
(188,-146,l),
(185,-161,o),
(171,-172,o),
(155,-172,c),
(84,-172,l),
(76,-200,l),
(365,-200,l),
(374,-172,l),
(315,-172,l),
(283,-172,o),
(266,-150,o),
(273,-120,c)
);
}
);
};
layerId = "00B6DBDF-8A79-4760-8C61-E953A7B5EE51";
name = "7. Nov. 24, 00:08";
shapes = (
{
closed = 1;
nodes = (
(368,-200,l),
(377,-172,l),
(363,-172,o),
(351,-172,o),
(334,-172,cs),
(290,-172,o),
(268,-143,o),
(281,-101,c),
(433,396,l),
(441,420,o),
(451,447,o),
(457,459,c),
(443,488,o),
(418,508,o),
(395,508,cs),
(258,508,o),
(100,370,o),
(29,175,cs),
(-10,68,o),
(9,-8,o),
(76,-8,cs),
(137,-8,o),
(244,23,o),
(310,106,c),
(312,139,l),
(264,69,o),
(192,62,o),
(163,62,cs),
(93,62,o),
(65,125,o),
(95,213,cs),
(141,345,o),
(230,439,o),
(309,439,cs),
(347,439,o),
(365,414,o),
(354,379,c),
(196,-142,l),
(191,-160,o),
(165,-172,o),
(134,-172,cs),
(84,-172,l),
(76,-200,l)
);
}
);
width = 431;
}
);
metricWidth = o;
unicode = 113;
},
{
glyphname = r;
lastChange = "2025-02-17 20:21:53 +0000";
layers = (
{
associatedMasterId = m003;
layerId = "D557A137-27E6-4560-890F-F4309894473F";
name = "6. Nov. 24, 23:41";
shapes = (
{
closed = 1;
nodes = (
(97,0,l),
(191,250,o),
(263,448,o),
(232,365,cs),
(263,449,o),
(260,508,o),
(216,508,cs),
(157,508,o),
(79,418,o),
(28,290,c),
(58,290,l),
(94,381,o),
(135,446,o),
(157,446,cs),
(177,446,o),
(173,395,o),
(146,323,cs),
(108,221,o),
(56,87,o),
(22,0,c)
);
},
{
closed = 1;
nodes = (
(195,313,o),
(311,474,o),
(333,474,c),
(347,474,o),
(353,456,o),
(353,424,c),
(353,384,o),
(335,365,o),
(335,343,c),
(335,332,o),
(344,329,o),
(348,329,c),
(380,329,o),
(445,349,o),
(445,418,c),
(445,474,o),
(398,508,o),
(337,508,cs),
(300,508,o),
(191,380,o),
(107,198,c),
(110,160,l)
);
}
);
width = 373;
},
{
anchors = (
{
name = bottom;
pos = (121,0);
},
{
name = top;
pos = (243,402);
}
);
layerId = m003;
name = "Groote Garmont Cursyf";
shapes = (
{
closed = 1;
nodes = (
(46,-9,o),
(85,-6,o),
(109,-7,c),
(133,66,o),
(153,125,o),
(169,173,cs),
(199,263,o),
(214,308,o),
(217,321,cs),
(229,374,o),
(224,414,o),
(193,414,cs),
(154,414,o),
(84,365,o),
(25,299,c),
(46,281,l),
(82,321,o),
(120,350,o),
(138,350,cs),
(149,350,o),
(151,329,o),
(139,290,cs),
(135,272,o),
(89,143,o),
(18,-16,c)
);
},
{
closed = 1;
nodes = (
(176,204,o),
(244,325,o),
(288,325,cs),
(294,325,o),
(300,323,o),
(307,321,cs),
(313,319,o),
(319,318,o),
(324,318,cs),
(341,318,o),
(364,340,o),
(375,370,cs),
(386,395,o),
(373,413,o),
(348,413,cs),
(285,413,o),
(187,281,o),
(106,98,c),
(118,33,l)
);
}
);
width = 364;
}
);
metricWidth = c;
unicode = 114;
},
{
glyphname = s;
lastChange = "2025-02-17 20:21:53 +0000";
layers = (
{
anchors = (
{
name = bottom;
pos = (115,0);
},
{
name = top;
pos = (237,402);
}
);
layerId = m003;
shapes = (
{
closed = 1;
nodes = (
(159,38,o),
(129,13,o),
(102,13,cs),
(69,13,o),
(60,46,o),
(79,96,c),
(85,107,o),
(83,118,o),
(71,118,cs),
(40,118,o),
(13,101,o),
(5,78,cs),
(-16,24,o),
(22,-14,o),
(93,-14,cs),
(159,-14,o),
(225,33,o),
(252,99,cs),
(271,145,o),
(243,176,o),
(214,207,cs),
(181,242,o),
(148,277,o),
(175,340,cs),
(187,368,o),
(209,386,o),
(229,386,cs),
(263,386,o),
(272,349,o),
(252,297,cs),
(247,286,o),
(249,275,o),
(260,275,cs),
(291,275,o),
(318,292,o),
(326,315,cs),
(349,373,o),
(311,413,o),
(238,413,cs),
(177,413,o),
(120,379,o),
(100,332,cs),
(67,253,o),
(105,214,o),
(139,180,cs),
(169,149,o),
(195,124,o),
(174,74,cs)
);
}
);
width = 351;
},
{
associatedMasterId = m003;
background = {
shapes = (
{
closed = 1;
nodes = (
(169,397,l),
(183,445,o),
(210,479,o),
(234,479,cs),
(272,479,o),
(281,429,o),
(256,358,cs),
(250,342,o),
(254,330,o),
(265,330,cs),
(306,330,o),
(344,354,o),
(356,388,cs),
(380,458,o),
(338,507,o),
(255,507,cs),
(177,507,o),
(108,456,o),
(87,383,c)
);
},
{
closed = 1;
nodes = (
(168,104,l),
(148,55,o),
(111,20,o),
(79,20,cs),
(41,20,o),
(32,70,o),
(57,141,cs),
(63,157,o),
(59,169,o),
(48,169,cs),
(7,169,o),
(-31,145,o),
(-43,111,cs),
(-67,41,o),
(-25,-8,o),
(58,-8,cs),
(134,-8,o),
(215,52,o),
(254,137,c)
);
}
);
};
layerId = "EBFBC35F-32CC-450C-9ABA-983167BABF9D";
name = "6. Nov. 24, 21:45";
shapes = (
{
closed = 1;
nodes = (
(-34,45,o),
(-5,-3,o),
(56,-3,cs),
(143,-3,o),
(227,51,o),
(250,128,cs),
(307,313,o),
(134,281,o),
(172,407,cs),
(185,448,o),
(211,477,o),
(235,477,cs),
(266,477,o),
(280,452,o),
(269,416,cs),
(265,404,o),
(271,396,o),
(282,396,cs),
(315,396,o),
(342,408,o),
(347,424,cs),
(362,473,o),
(325,507,o),
(259,507,cs),
(179,507,o),
(114,462,o),
(91,386,cs),
(35,202,o),
(205,224,o),
(169,107,cs),
(156,65,o),
(111,27,o),
(79,27,cs),
(51,27,o),
(44,64,o),
(59,116,cs),
(63,128,o),
(57,137,o),
(45,137,cs),
(15,137,o),
(-9,127,o),
(-13,113,cs)
);
}
);
width = 334;
}
);
metricLeft = o;
metricRight = o;
metricWidth = c;
unicode = 115;
},
{
glyphname = germandbls;
lastChange = "2025-02-17 20:21:53 +0000";
layers = (
{
anchors = (
{
name = bottom;
pos = (182,0);
},
{
name = top;
pos = (376,637);
}
);
layerId = m003;
shapes = (
{
closed = 1;
nodes = (
(-92,-234,o),
(-51,-202,o),
(-12,-164,cs),
(81,-78,o),
(121,68,o),
(138,148,cs),
(145,180,o),
(151,210,o),
(158,241,cs),
(175,323,o),
(191,402,o),
(212,486,cs),
(231,563,o),
(284,609,o),
(326,608,c),
(355,643,l),
(254,645,o),
(147,562,o),
(118,434,cs),
(107,383,o),
(94,318,o),
(82,254,cs),
(66,175,o),
(50,95,o),
(36,32,cs),
(16,-55,o),
(6,-89,o),
(-36,-137,cs),
(-46,-149,o),
(-58,-155,o),
(-67,-155,cs),
(-75,-155,o),
(-78,-151,o),
(-83,-144,cs),
(-87,-138,o),
(-91,-132,o),
(-102,-132,cs),
(-134,-132,o),
(-167,-163,o),
(-176,-205,cs),
(-179,-220,o),
(-164,-234,o),
(-137,-234,cs)
);
},
{
closed = 1;
nodes = (
(334,38,o),
(321,13,o),
(287,13,cs),
(250,13,o),
(235,46,o),
(254,96,c),
(259,106,o),
(256,118,o),
(246,118,cs),
(215,118,o),
(188,101,o),
(180,78,cs),
(159,24,o),
(196,-14,o),
(268,-14,cs),
(347,-14,o),
(401,33,o),
(427,99,cs),
(447,148,o),
(417,179,o),
(388,210,cs),
(356,246,o),
(324,280,o),
(350,340,cs),
(369,387,o),
(394,399,o),
(417,410,cs),
(445,423,o),
(470,436,o),
(470,513,cs),
(470,578,o),
(445,639,o),
(350,643,c),
(321,608,l),
(393,610,o),
(405,551,o),
(405,481,cs),
(405,434,o),
(382,422,o),
(352,407,cs),
(326,394,o),
(295,379,o),
(275,332,cs),
(243,256,o),
(280,216,o),
(313,181,cs),
(342,150,o),
(368,122,o),
(349,74,cs)
);
}
);
width = 485;
}
);
unicode = 223;
},
{
glyphname = t;
lastChange = "2025-02-17 20:21:53 +0000";
layers = (
{
anchors = (
{
name = bottom;
pos = (81,0);
},
{
name = center;
pos = (142,201);
},
{
name = top;
pos = (236,507);
},
{
name = topright;
pos = (397,637);
}
);
layerId = m003;
shapes = (
{
closed = 1;
nodes = (
(96,-14,o),
(164,32,o),
(220,95,c),
(199,114,l),
(163,74,o),
(126,45,o),
(110,45,cs),
(97,45,o),
(97,87,o),
(118,151,cs),
(138,211,o),
(158,275,o),
(179,335,cs),
(204,406,o),
(238,467,o),
(253,507,c),
(221,493,o),
(189,489,o),
(159,487,c),
(117,365,o),
(77,242,o),
(32,121,cs),
(3,41,o),
(19,-14,o),
(58,-14,cs)
);
},
{
closed = 1;
nodes = (
(284,357,l),
(302,406,l),
(122,402,l),
(36,382,l),
(32,369,l)
);
}
);
width = 284;
}
);
metricWidth = i;
unicode = 116;
},
{
glyphname = u;
lastChange = "2025-02-17 20:21:53 +0000";
layers = (
{
anchors = (
{
name = bottom;
pos = (173,0);
},
{
name = ogonek;
pos = (363,10);
},
{
name = top;
pos = (295,402);
},
{
name = topright;
pos = (509,402);
}
);
background = {
shapes = (
{
closed = 1;
nodes = (
(43,-2,o),
(70,2,o),
(96,4,c),
(180,264,o),
(217,395,o),
(221,413,cs),
(236,479,o),
(231,508,o),
(194,508,cs),
(154,508,o),
(110,466,o),
(36,372,c),
(58,350,l),
(92,399,o),
(125,427,o),
(139,427,cs),
(156,427,o),
(144,368,o),
(129,319,cs),
(64,110,o),
(35,37,o),
(17,-7,c)
);
},
{
closed = 1;
nodes = (
(334,-10,o),
(387,36,o),
(457,122,c),
(437,144,l),
(397,94,o),
(357,57,o),
(341,57,cs),
(326,57,o),
(345,108,o),
(376,184,c),
(437,338,l),
(476,437,o),
(489,510,o),
(433,510,cs),
(363,510,o),
(217,372,o),
(132,181,c),
(106,66,l),
(181,251,o),
(321,434,o),
(382,434,cs),
(401,434,o),
(383,388,o),
(353,308,c),
(275,116,l),
(232,7,o),
(262,-10,o),
(295,-10,cs)
);
}
);
};
layerId = m003;
shapes = (
{
closed = 1;
nodes = (
(444,412,o),
(413,408,o),
(376,404,c),
(355,347,o),
(336,297,o),
(320,254,cs),
(274,131,o),
(247,57,o),
(242,30,cs),
(237,-3,o),
(253,-15,o),
(285,-15,cs),
(315,-15,o),
(379,32,o),
(433,95,c),
(411,116,l),
(376,73,o),
(338,43,o),
(323,43,cs),
(318,43,o),
(328,92,o),
(353,152,cs),
(438,358,o),
(479,469,o),
(451,413,c)
);
},
{
closed = 1;
nodes = (
(150,415,o),
(90,366,o),
(38,300,c),
(61,279,l),
(93,319,o),
(133,359,o),
(150,359,cs),
(158,359,o),
(147,315,o),
(120,258,cs),
(60,129,ls),
(23,46,o),
(29,-15,o),
(75,-15,cs),
(155,-15,o),
(267,97,o),
(346,256,c),
(376,374,l),
(295,186,o),
(187,51,o),
(133,51,cs),
(111,51,o),
(122,92,o),
(146,153,cs),
(155,176,o),
(166,201,o),
(176,223,cs),
(195,265,o),
(214,308,o),
(225,353,cs),
(236,401,o),
(218,415,o),
(183,415,cs)
);
}
);
width = 468;
},
{
associatedMasterId = m003;
layerId = "ABB09411-EC44-4418-BAB9-7685FF2C341E";
name = "6. Nov. 24, 23:15";
shapes = (
{
closed = 1;
nodes = (
(418,509,l),
(324,259,o),
(246,61,o),
(277,144,c),
(244,56,o),
(247,-7,o),
(284,-7,cs),
(348,-7,o),
(432,87,o),
(485,219,c),
(455,219,l),
(424,141,o),
(381,86,o),
(352,86,cs),
(340,86,o),
(347,127,o),
(369,186,cs),
(395,258,o),
(447,391,o),
(493,509,c)
);
},
{
closed = 1;
nodes = (
(159,517,o),
(75,423,o),
(22,291,c),
(52,291,l),
(83,369,o),
(126,424,o),
(155,424,cs),
(167,424,o),
(163,383,o),
(138,324,c),
(63,150,l),
(24,60,o),
(42,-7,o),
(94,-7,cs),
(151,-7,o),
(247,87,o),
(327,221,c),
(327,264,l),
(268,159,o),
(177,77,o),
(138,77,cs),
(114,77,o),
(131,134,o),
(160,201,c),
(230,366,l),
(267,453,o),
(260,517,o),
(223,517,cs)
);
}
);
width = 495;
}
);
metricLeft = n;
metricRight = n;
metricWidth = n;
unicode = 117;
},
{
glyphname = v;
lastChange = "2025-02-17 20:21:53 +0000";
layers = (
{
anchors = (
{
name = bottom;
pos = (145,0);
},
{
name = top;
pos = (267,402);
}
);
layerId = m003;
shapes = (
{
closed = 1;
nodes = (
(208,-14,o),
(304,91,o),
(359,224,cs),
(406,339,o),
(392,423,o),
(323,423,cs),
(299,423,o),
(275,406,o),
(266,383,cs),
(258,364,o),
(262,347,o),
(279,347,cs),
(329,347,o),
(337,281,o),
(298,183,cs),
(267,107,o),
(213,44,o),
(166,44,cs),
(118,44,o),
(108,108,o),
(146,204,cs),
(166,254,o),
(180,269,o),
(194,284,cs),
(205,296,o),
(215,305,o),
(225,333,c),
(237,380,o),
(217,414,o),
(179,414,cs),
(151,414,o),
(89,366,o),
(30,300,c),
(54,279,l),
(82,316,o),
(114,343,o),
(129,343,cs),
(150,343,o),
(160,309,o),
(136,258,cs),
(131,247,o),
(117,228,o),
(103,209,cs),
(86,186,o),
(65,158,o),
(58,140,cs),
(23,52,o),
(52,-14,o),
(127,-14,cs)
);
}
);
width = 411;
}
);
metricWidth = o;
unicode = 118;
},
{
glyphname = w;
lastChange = "2025-02-18 18:51:21 +0000";
layers = (
{
anchors = (
{
name = bottom;
pos = (231,0);
},
{
name = top;
pos = (353,402);
}
);
background = {
shapes = (
{
closed = 1;
nodes = (
(206,-12,o),
(301,82,o),
(356,215,cs),
(403,330,o),
(389,411,o),
(322,411,cs),
(299,411,o),
(276,395,o),
(267,372,cs),
(259,353,o),
(263,339,o),
(278,339,cs),
(330,339,o),
(338,270,o),
(299,172,cs),
(268,96,o),
(213,42,o),
(165,42,cs),
(115,42,o),
(105,109,o),
(143,205,cs),
(179,296,o),
(201,275,o),
(222,334,c),
(234,380,o),
(215,412,o),
(178,412,cs),
(151,412,o),
(91,366,o),
(32,300,c),
(53,282,l),
(81,319,o),
(113,345,o),
(128,345,cs),
(151,345,o),
(161,308,o),
(137,257,cs),
(125,231,o),
(72,172,o),
(59,139,cs),
(24,51,o),
(52,-12,o),
(126,-12,cs)
);
}
);
};
layerId = m003;
shapes = (
{
closed = 1;
nodes = (
(391,-14,o),
(478,91,o),
(532,224,cs),
(579,339,o),
(565,423,o),
(496,423,cs),
(472,423,o),
(449,406,o),
(439,383,cs),
(430,362,o),
(436,347,o),
(452,347,cs),
(505,347,o),
(515,281,o),
(475,183,cs),
(445,107,o),
(379,30,o),
(330,30,cs),
(305,30,o),
(282,40,o),
(275,54,c),
(315,87,o),
(449,348,o),
(354,348,cs),
(282,348,o),
(180,125,o),
(222,47,c),
(213,39,o),
(191,37,o),
(183,37,cs),
(130,37,o),
(117,108,o),
(155,204,cs),
(175,253,o),
(190,271,o),
(203,286,cs),
(215,300,o),
(225,311,o),
(235,338,cs),
(245,368,o),
(228,413,o),
(186,413,cs),
(137,413,o),
(110,382,o),
(69,334,cs),
(60,323,o),
(49,311,o),
(39,300,c),
(63,279,l),
(91,316,o),
(115,345,o),
(138,345,cs),
(170,345,o),
(159,300,o),
(145,258,cs),
(140,245,o),
(125,225,o),
(109,204,cs),
(92,182,o),
(73,158,o),
(66,140,cs),
(30,50,o),
(63,-14,o),
(144,-14,cs),
(168,-14,o),
(203,1,o),
(232,24,c),
(250,2,o),
(276,-14,o),
(310,-14,cs)
);
},
{
closed = 1;
nodes = (
(241,130,o),
(265,291,o),
(329,291,cs),
(400,291,o),
(290,119,o),
(263,83,c)
);
}
);
width = 584;
},
{
associatedMasterId = m003;
layerId = "5A38C2F5-2BB2-4579-8BD4-F84C47CF3AA8";
name = "6. Nov. 24, 23:46";
shapes = (
{
closed = 1;
nodes = (
(433,-7,o),
(532,107,o),
(582,268,cs),
(624,408,o),
(610,507,o),
(548,507,cs),
(519,507,o),
(492,485,o),
(483,455,cs),
(474,428,o),
(479,409,o),
(496,409,cs),
(548,409,o),
(561,329,o),
(527,216,cs),
(500,129,o),
(442,67,o),
(388,67,cs),
(372,67,o),
(351,78,o),
(338,93,c),
(359,115,o),
(386,170,o),
(402,224,cs),
(424,295,o),
(413,345,o),
(374,345,cs),
(317,345,o),
(258,275,o),
(231,176,cs),
(223,145,o),
(223,103,o),
(233,74,c),
(222,70,o),
(203,67,o),
(188,67,cs),
(133,67,o),
(118,145,o),
(153,256,cs),
(187,367,o),
(239,424,o),
(253,469,cs),
(260,491,o),
(242,507,o),
(209,507,cs),
(135,507,o),
(62,463,o),
(33,400,cs),
(0,331,l),
(41,338,l),
(63,384,ls),
(71,401,o),
(96,413,o),
(123,413,cs),
(151,413,o),
(164,390,o),
(154,357,cs),
(144,324,o),
(74,216,o),
(61,176,cs),
(29,69,o),
(63,-7,o),
(143,-7,cs),
(174,-7,o),
(220,10,o),
(252,35,c),
(272,10,o),
(309,-7,o),
(343,-7,cs)
);
},
{
closed = 1;
nodes = (
(296,149,o),
(293,207,o),
(313,266,cs),
(322,288,o),
(339,304,o),
(354,304,cs),
(379,304,o),
(381,259,o),
(358,196,cs),
(349,169,o),
(333,140,o),
(320,127,c)
);
}
);
width = 630;
}
);
unicode = 119;
},
{
glyphname = x;
lastChange = "2025-02-17 20:21:53 +0000";
layers = (
{
anchors = (
{
name = bottom;
pos = (152,0);
},
{
name = top;
pos = (274,402);
}
);
background = {
shapes = (
{
closed = 0;
nodes = (
(190,334,ls),
(204,388,o),
(199,412,o),
(165,412,cs),
(128,412,o),
(88,377,o),
(19,300,c),
(40,282,l),
(71,322,o),
(101,345,o),
(114,345,cs),
(130,345,o),
(119,297,o),
(105,257,cs)
);
}
);
};
layerId = m003;
shapes = (
{
closed = 1;
nodes = (
(67,-9,o),
(158,113,o),
(228,207,cs),
(280,277,o),
(326,337,o),
(340,337,cs),
(367,337,o),
(388,324,o),
(387,304,c),
(439,366,l),
(425,394,o),
(402,414,o),
(385,414,cs),
(350,414,o),
(254,290,o),
(178,192,cs),
(127,126,o),
(85,72,o),
(76,72,cs),
(64,72,o),
(49,87,o),
(42,106,c),
(-20,59,l),
(-10,20,o),
(8,-9,o),
(22,-9,cs)
);
},
{
closed = 1;
nodes = (
(293,-9,o),
(359,35,o),
(411,95,c),
(390,116,l),
(353,74,o),
(316,49,o),
(295,49,cs),
(286,49,o),
(272,113,o),
(259,188,cs),
(240,291,o),
(217,414,o),
(183,414,cs),
(151,414,o),
(85,366,o),
(26,300,c),
(50,279,l),
(79,317,o),
(116,344,o),
(135,344,cs),
(148,344,o),
(160,284,o),
(172,213,cs),
(189,112,o),
(210,-9,o),
(255,-9,cs)
);
}
);
width = 425;
}
);
unicode = 120;
},
{
glyphname = y;
lastChange = "2025-02-17 20:21:53 +0000";
layers = (
{
anchors = (
{
name = bottom;
pos = (144,0);
},
{
name = top;
pos = (266,402);
}
);
background = {
shapes = (
{
closed = 0;
nodes = (
(81,132,ls),
(38,-54,o),
(2,-185,o),
(-34,-185,cs),
(-65,-185,o),
(-75,-144,o),
(-58,-86,cs),
(-53,-73,o),
(-57,-63,o),
(-67,-63,cs),
(-101,-63,o),
(-130,-83,o),
(-138,-111,cs),
(-155,-168,o),
(-119,-208,o),
(-51,-208,cs),
(37,-208,o),
(114,-60,o),
(162,149,cs)
);
},
{
closed = 0;
nodes = (
(180,334,ls),
(194,388,o),
(189,412,o),
(155,412,cs),
(118,412,o),
(78,377,o),
(9,300,c),
(30,282,l),
(61,322,o),
(91,345,o),
(104,345,cs),
(120,345,o),
(109,297,o),
(95,257,cs)
);
}
);
};
layerId = m003;
shapes = (
{
closed = 1;
nodes = (
(18,-178,o),
(104,-89,o),
(210,50,cs),
(281,142,o),
(353,256,o),
(392,372,cs),
(401,396,o),
(378,414,o),
(342,414,cs),
(311,414,o),
(286,393,o),
(286,366,cs),
(286,362,o),
(290,351,o),
(293,346,cs),
(319,297,o),
(270,177,o),
(178,60,cs),
(75,-72,o),
(-10,-145,o),
(-33,-145,cs),
(-54,-145,o),
(-71,-124,o),
(-56,-86,cs),
(-47,-65,o),
(-52,-55,o),
(-63,-55,cs),
(-94,-55,o),
(-122,-72,o),
(-131,-95,cs),
(-149,-145,o),
(-111,-178,o),
(-45,-178,cs)
);
},
{
closed = 1;
nodes = (
(40,279,l),
(71,320,o),
(109,349,o),
(132,349,cs),
(161,349,o),
(146,137,o),
(111,-28,c),
(175,24,l),
(221,217,o),
(241,414,o),
(155,414,cs),
(126,414,o),
(68,366,o),
(16,300,c)
);
}
);
width = 409;
}
);
metricWidth = c;
unicode = 121;
},
{
glyphname = z;
lastChange = "2025-02-17 20:21:53 +0000";
layers = (
{
anchors = (
{
name = bottom;
pos = (130,0);
},
{
name = center;
pos = (191,201);
},
{
name = top;
pos = (252,402);
}
);
layerId = m003;
shapes = (
{
closed = 1;
nodes = (
(392,399,l),
(369,415,l),
(-28,-3,l),
(-2,-19,l)
);
},
{
closed = 1;
nodes = (
(20,-5,o),
(50,9,o),
(79,9,cs),
(85,9,o),
(96,5,o),
(110,0,cs),
(132,-8,o),
(159,-18,o),
(182,-18,cs),
(229,-18,o),
(281,14,o),
(306,57,cs),
(346,130,l),
(325,138,l),
(295,92,ls),
(280,68,o),
(239,53,o),
(210,53,cs),
(199,53,o),
(182,59,o),
(165,65,cs),
(145,72,o),
(123,80,o),
(106,80,cs),
(58,80,o),
(2,36,o),
(-28,-4,c),
(4,-24,l)
);
},
{
closed = 1;
nodes = (
(92,304,ls),
(106,328,o),
(143,343,o),
(168,343,cs),
(178,343,o),
(195,337,o),
(211,331,cs),
(230,324,o),
(251,316,o),
(266,316,cs),
(311,316,o),
(355,352,o),
(392,399,c),
(363,420,l),
(349,401,o),
(318,387,o),
(292,387,cs),
(287,387,o),
(276,391,o),
(263,396,cs),
(242,404,o),
(215,414,o),
(194,414,cs),
(151,414,o),
(101,382,o),
(78,339,cs),
(40,266,l),
(64,258,l)
);
}
);
width = 382;
}
);
unicode = 122;
},
{
glyphname = zero;
lastChange = "2025-02-17 20:26:12 +0000";
layers = (
{
hints = (
{
horizontal = 1;
place = (409,37);
type = Stem;
},
{
horizontal = 1;
place = (-13,37);
type = Stem;
},
{
place = (401,84);
type = Stem;
},
{
place = (33,84);
type = Stem;
}
);
layerId = m003;
shapes = (
{
closed = 1;
nodes = (
(323,-16,o),
(437,84,o),
(470,225,cs),
(500,354,o),
(431,446,o),
(303,446,cs),
(178,446,o),
(68,354,o),
(38,225,cs),
(5,84,o),
(70,-16,o),
(196,-16,cs)
);
},
{
closed = 1;
nodes = (
(255,17,o),
(169,52,o),
(124,148,cs),
(84,234,o),
(103,324,o),
(169,365,cs),
(248,413,o),
(332,385,o),
(371,298,cs),
(415,202,o),
(399,105,o),
(331,63,cs)
);
}
);
width = 504;
}
);
unicode = 48;
},
{
glyphname = one;
lastChange = "2025-02-17 20:26:16 +0000";
layers = (
{
hints = (
{
horizontal = 1;
place = (410,33);
type = Stem;
},
{
horizontal = 1;
place = (-5,34);
type = Stem;
},
{
place = (118,75);
type = Stem;
}
);
layerId = m003;
shapes = (
{
closed = 1;
nodes = (
(237,-5,l),
(242,19,l),
(225,23,o),
(203,32,o),
(194,40,cs),
(182,51,o),
(176,77,o),
(181,98,cs),
(188,132,o),
(205,204,o),
(222,279,cs),
(234,331,o),
(256,405,o),
(271,446,c),
(77,396,l),
(71,368,l),
(127,368,o),
(165,344,o),
(158,313,cs),
(144,252,o),
(110,102,o),
(104,79,cs),
(102,70,o),
(86,54,o),
(68,43,cs),
(55,34,o),
(26,24,o),
(3,20,c),
(-3,-5,l)
);
}
);
width = 306;
}
);
unicode = 49;
},
{
glyphname = two;
lastChange = "2025-02-17 20:26:18 +0000";
layers = (
{
hints = (
{
horizontal = 1;
place = (387,61);
type = Stem;
},
{
horizontal = 1;
place = (-5,65);
type = Stem;
},
{
place = (246,92);
type = Stem;
}
);
layerId = m003;
shapes = (
{
closed = 1;
nodes = (
(334,-5,l),
(405,94,l),
(286,74,o),
(170,63,o),
(56,63,c),
(52,36,l),
(231,158,o),
(369,239,o),
(389,326,cs),
(409,413,o),
(357,446,o),
(282,446,cs),
(208,446,o),
(135,396,o),
(99,355,c),
(121,335,l),
(161,366,o),
(205,384,o),
(232,384,cs),
(279,384,o),
(304,349,o),
(295,310,cs),
(283,258,o),
(215,189,o),
(127,126,cs),
(-29,13,l),
(-27,-5,l)
);
}
);
width = 450;
}
);
unicode = 50;
},
{
glyphname = three;
lastChange = "2025-02-17 20:26:26 +0000";
layers = (
{
hints = (
{
horizontal = 1;
place = (382,62);
type = Stem;
},
{
horizontal = 1;
place = (140,47);
type = Stem;
},
{
horizontal = 1;
place = (-243,77);
type = Stem;
},
{
place = (212,88);
type = Stem;
}
);
layerId = m003;
shapes = (
{
closed = 1;
nodes = (
(96,-199,o),
(247,-63,o),
(277,64,cs),
(293,135,o),
(260,185,o),
(196,185,cs),
(170,185,o),
(132,176,o),
(104,164,cs),
(133,179,o),
(111,175,o),
(51,156,c),
(60,126,l),
(78,134,o),
(105,140,o),
(125,140,cs),
(178,140,o),
(206,96,o),
(192,33,cs),
(172,-50,o),
(57,-154,o),
(-82,-205,c),
(-82,-238,l)
);
},
{
closed = 1;
nodes = (
(73,133,o),
(98,160,o),
(122,171,cs),
(221,216,o),
(310,292,o),
(325,354,cs),
(337,408,o),
(295,446,o),
(238,446,cs),
(193,446,o),
(124,411,o),
(70,361,c),
(81,339,l),
(115,365,o),
(166,384,o),
(193,384,cs),
(223,384,o),
(239,359,o),
(231,324,cs),
(220,277,o),
(146,208,o),
(51,156,c),
(60,126,l)
);
}
);
width = 342;
}
);
unicode = 51;
},
{
glyphname = four;
lastChange = "2025-02-17 20:26:28 +0000";
layers = (
{
hints = (
{
horizontal = 1;
place = (-5,54);
type = Stem;
},
{
horizontal = 1;
place = (415,21);
target = up;
type = BottomGhost;
},
{
place = (308,77);
type = Stem;
}
);
layerId = m003;
shapes = (
{
closed = 1;
nodes = (
(290,-205,l),
(339,8,o),
(388,222,o),
(442,435,c),
(397,435,l),
(-12,53,l),
(-22,9,l),
(125,9,o),
(271,3,o),
(417,-1,c),
(434,75,l),
(297,72,o),
(158,69,o),
(21,69,c),
(17,38,l),
(380,374,l),
(348,352,l),
(295,166,o),
(256,-5,o),
(210,-205,c)
);
}
);
width = 486;
}
);
unicode = 52;
},
{
glyphname = five;
lastChange = "2025-02-17 20:26:30 +0000";
layers = (
{
hints = (
{
horizontal = 1;
place = (371,68);
type = Stem;
},
{
place = (187,77);
type = Stem;
}
);
layerId = m003;
shapes = (
{
closed = 1;
nodes = (
(88,-184,o),
(231,-59,o),
(258,58,cs),
(281,156,o),
(212,257,o),
(93,302,c),
(84,269,l),
(168,406,l),
(120,363,l),
(203,368,o),
(284,364,o),
(363,353,c),
(418,435,l),
(154,435,l),
(44,252,l),
(139,187,o),
(195,94,o),
(179,26,cs),
(161,-53,o),
(47,-147,o),
(-98,-208,c),
(-89,-243,l)
);
}
);
width = 378;
}
);
unicode = 53;
},
{
glyphname = six;
lastChange = "2025-02-17 20:26:36 +0000";
layers = (
{
hints = (
{
horizontal = 1;
place = (312,50);
type = Stem;
},
{
horizontal = 1;
place = (-10,36);
type = Stem;
},
{
horizontal = 1;
place = (680,21);
target = up;
type = BottomGhost;
},
{
place = (346,80);
type = Stem;
},
{
place = (36,87);
type = Stem;
}
);
layerId = m003;
shapes = (
{
closed = 1;
nodes = (
(296,-16,o),
(399,69,o),
(427,190,cs),
(451,294,o),
(393,368,o),
(294,368,cs),
(258,368,o),
(213,352,o),
(186,330,c),
(197,307,l),
(211,316,o),
(235,323,o),
(253,323,cs),
(324,323,o),
(359,258,o),
(337,166,cs),
(318,83,o),
(259,24,o),
(195,24,cs),
(128,24,o),
(103,124,o),
(135,265,cs),
(174,434,o),
(354,592,o),
(573,661,c),
(567,705,l),
(305,621,o),
(89,428,o),
(44,233,cs),
(10,87,o),
(69,-16,o),
(186,-16,cs)
);
}
);
width = 468;
}
);
unicode = 54;
},
{
glyphname = seven;
lastChange = "2025-02-17 20:26:38 +0000";
layers = (
{
hints = (
{
horizontal = 1;
place = (370,66);
type = Stem;
}
);
layerId = m003;
shapes = (
{
closed = 1;
nodes = (
(21,-249,l),
(539,439,l),
(118,439,l),
(55,339,l),
(191,356,o),
(325,366,o),
(458,367,c),
(457,405,l),
(-14,-218,l)
);
}
);
width = 468;
}
);
unicode = 55;
},
{
glyphname = eight;
lastChange = "2025-02-17 20:26:41 +0000";
layers = (
{
hints = (
{
horizontal = 1;
place = (654,47);
type = Stem;
},
{
horizontal = 1;
place = (-14,38);
type = Stem;
},
{
place = (302,64);
type = Stem;
},
{
place = (27,73);
type = Stem;
}
);
layerId = m003;
shapes = (
{
closed = 1;
nodes = (
(266,-16,o),
(358,54,o),
(382,154,c),
(417,308,o),
(167,378,o),
(195,498,cs),
(210,565,o),
(256,611,o),
(309,611,c),
(317,647,l),
(223,647,o),
(140,573,o),
(116,469,cs),
(79,308,o),
(328,227,o),
(305,126,c),
(291,64,o),
(234,20,o),
(167,20,c),
(158,-16,l)
);
},
{
closed = 1;
nodes = (
(167,20,l),
(106,20,o),
(75,72,o),
(92,146,cs),
(106,206,o),
(163,272,o),
(231,308,c),
(206,323,l),
(111,276,o),
(33,197,o),
(15,119,cs),
(-3,40,o),
(56,-16,o),
(158,-16,c)
);
},
{
closed = 1;
nodes = (
(309,611,l),
(370,611,o),
(391,559,o),
(374,485,cs),
(360,426,o),
(305,368,o),
(237,332,c),
(262,317,l),
(357,364,o),
(432,435,o),
(450,512,cs),
(469,592,o),
(419,647,o),
(317,647,c)
);
}
);
width = 432;
}
);
unicode = 56;
},
{
glyphname = nine;
lastChange = "2025-02-17 20:26:43 +0000";
layers = (
{
hints = (
{
horizontal = 1;
place = (406,37);
type = Stem;
},
{
horizontal = 1;
place = (77,51);
type = Stem;
},
{
place = (330,87);
type = Stem;
},
{
place = (32,79);
type = Stem;
}
);
layerId = m003;
shapes = (
{
closed = 1;
nodes = (
(179,446,o),
(78,368,o),
(52,257,cs),
(30,161,o),
(90,94,o),
(189,94,cs),
(225,94,o),
(269,108,o),
(296,128,c),
(284,149,l),
(271,141,o),
(247,135,o),
(229,135,cs),
(158,135,o),
(122,194,o),
(141,279,cs),
(159,355,o),
(217,409,o),
(281,409,cs),
(348,409,o),
(375,317,o),
(345,188,cs),
(310,33,o),
(127,-139,o),
(-91,-203,c),
(-84,-243,l),
(176,-166,o),
(395,38,o),
(436,217,cs),
(467,351,o),
(406,446,o),
(289,446,cs)
);
}
);
width = 468;
}
);
unicode = 57;
},
{
glyphname = period;
lastChange = "2025-02-17 20:05:56 +0000";
layers = (
{
layerId = m003;
shapes = (
{
closed = 1;
nodes = (
(106,-4,o),
(132,28,o),
(132,67,cs),
(132,106,o),
(106,138,o),
(74,138,cs),
(42,138,o),
(16,106,o),
(16,67,cs),
(16,28,o),
(42,-4,o),
(74,-4,cs)
);
}
);
width = 240;
}
);
unicode = 46;
},
{
glyphname = comma;
lastChange = "2025-02-17 20:05:56 +0000";
layers = (
{
layerId = m003;
shapes = (
{
closed = 1;
nodes = (
(75,-152,o),
(142,-70,o),
(156,-11,cs),
(177,83,o),
(149,149,o),
(85,149,cs),
(51,149,o),
(21,127,o),
(14,95,cs),
(6,57,o),
(20,30,o),
(48,30,cs),
(92,30,o),
(115,-7,o),
(103,-59,cs),
(96,-88,o),
(47,-142,o),
(-15,-187,c),
(-5,-208,l)
);
}
);
width = 284;
}
);
unicode = 44;
},
{
glyphname = colon;
lastChange = "2025-02-17 20:05:56 +0000";
layers = (
{
layerId = m003;
shapes = (
{
closed = 1;
nodes = (
(197,340,o),
(237,357,o),
(250,387,cs),
(263,415,o),
(243,445,o),
(207,453,cs),
(171,461,o),
(131,444,o),
(119,415,cs),
(106,386,o),
(125,356,o),
(162,348,c)
);
},
{
closed = 1;
nodes = (
(109,0,o),
(149,17,o),
(162,47,cs),
(174,75,o),
(154,105,o),
(119,113,cs),
(83,121,o),
(43,104,o),
(30,75,cs),
(17,46,o),
(36,16,o),
(74,8,c)
);
}
);
width = 272;
}
);
unicode = 58;
},
{
glyphname = semicolon;
lastChange = "2025-02-17 20:05:56 +0000";
layers = (
{
layerId = m003;
shapes = (
{
closed = 1;
nodes = (
(65,-103,o),
(137,-45,o),
(168,7,cs),
(216,90,o),
(214,162,o),
(162,183,cs),
(134,193,o),
(104,181,o),
(87,152,cs),
(67,119,o),
(70,89,o),
(94,80,cs),
(129,66,o),
(145,23,o),
(118,-23,cs),
(102,-49,o),
(44,-85,o),
(-21,-109,c),
(-20,-132,l)
);
},
{
closed = 1;
nodes = (
(197,340,o),
(237,357,o),
(250,387,cs),
(263,415,o),
(243,445,o),
(207,453,cs),
(171,461,o),
(131,444,o),
(119,415,cs),
(106,386,o),
(125,356,o),
(162,348,c)
);
}
);
width = 299;
}
);
unicode = 59;
},
{
glyphname = hyphen;
lastChange = "2025-02-17 20:05:56 +0000";
layers = (
{
layerId = m003;
shapes = (
{
closed = 1;
nodes = (
(324,223,l),
(351,285,l),
(87,285,l),
(60,223,l)
);
}
);
width = 398;
}
);
unicode = 45;
},
{
glyphname = dieresiscomb;
lastChange = "2025-02-17 20:23:38 +0000";
layers = (
{
anchors = (
{
name = _top;
pos = (220,435);
},
{
name = top;
pos = (297,703);
}
);
layerId = m003;
shapes = (
{
closed = 1;
nodes = (
(207,561,o),
(227,586,o),
(227,617,cs),
(227,648,o),
(207,673,o),
(182,673,cs),
(156,673,o),
(136,648,o),
(136,617,cs),
(136,586,o),
(156,561,o),
(182,561,cs)
);
},
{
closed = 1;
nodes = (
(364,561,o),
(384,586,o),
(384,617,cs),
(384,648,o),
(364,673,o),
(338,673,cs),
(313,673,o),
(293,648,o),
(293,617,cs),
(293,586,o),
(313,561,o),
(338,561,cs)
);
}
);
width = 302;
}
);
unicode = 776;
},
